<?xml version="1.0" encoding="utf-8"?>
<!-- Generator: Adobe Illustrator 16.0.0, SVG Export Plug-In . SVG Version: 6.00 Build 0)  -->
<!DOCTYPE svg PUBLIC "-//W3C//DTD SVG 1.1//EN" "http://www.w3.org/Graphics/SVG/1.1/DTD/svg11.dtd">
<svg version="1.1" id="Layer_1" xmlns="http://www.w3.org/2000/svg" xmlns:xlink="http://www.w3.org/1999/xlink" x="0px" y="0px"
	 width="94px" height="119px" viewBox="0 0 94 119" enable-background="new 0 0 94 119" xml:space="preserve">
<g>
	<path d="M53.475,48.82c0.143-0.243-0.011-0.595-0.341-0.793c-0.332-0.194-0.715-0.157-0.856,0.083
		c-0.143,0.241,0.011,0.597,0.342,0.792C52.949,49.098,53.331,49.062,53.475,48.82 M46.183,72.711
		c0.062,0.025,0.124,0.055,0.188,0.079c0.066,0.031,0.131,0.056,0.19,0.084c0.162,0.07,0.286,0.123,0.286,0.123
		s0.123-0.052,0.288-0.123c0.06-0.026,0.123-0.054,0.188-0.084c0.062-0.024,0.128-0.054,0.19-0.079
		c0.016-0.01,0.034-0.017,0.053-0.023c-0.008,0.019-0.017,0.033-0.022,0.054c-0.026,0.062-0.056,0.125-0.082,0.189
		c-0.028,0.064-0.057,0.129-0.082,0.188c-0.071,0.163-0.124,0.29-0.124,0.29s0.055,0.123,0.124,0.288
		c0.025,0.06,0.053,0.125,0.082,0.189c0.026,0.062,0.056,0.128,0.082,0.189c0.007,0.019,0.017,0.034,0.022,0.052
		c-0.019-0.007-0.037-0.014-0.053-0.021c-0.062-0.027-0.129-0.055-0.189-0.082c-0.065-0.029-0.129-0.056-0.188-0.083
		c-0.163-0.071-0.288-0.123-0.288-0.123s-0.124,0.055-0.286,0.123c-0.06,0.027-0.123,0.054-0.19,0.083
		c-0.062,0.027-0.126,0.055-0.188,0.082c-0.02,0.009-0.038,0.016-0.053,0.021c0.006-0.018,0.014-0.033,0.022-0.052
		c0.024-0.062,0.055-0.129,0.081-0.189c0.028-0.064,0.057-0.132,0.082-0.189c0.069-0.164,0.123-0.288,0.123-0.288
		s-0.054-0.127-0.123-0.29c-0.025-0.061-0.054-0.123-0.082-0.188c-0.026-0.064-0.057-0.128-0.081-0.189
		c-0.009-0.019-0.016-0.035-0.024-0.054C46.146,72.694,46.164,72.701,46.183,72.711 M45.783,73.89
		c-0.193,0.446-0.445,1.031-0.445,1.031s0.583-0.252,1.027-0.442c0.201,0.405,0.481,0.976,0.481,0.976s0.281-0.568,0.482-0.976
		c0.443,0.19,1.025,0.442,1.025,0.442s-0.252-0.584-0.442-1.031c0.405-0.199,0.974-0.481,0.974-0.481s-0.568-0.283-0.974-0.483
		c0.19-0.446,0.442-1.032,0.442-1.032s-0.582,0.253-1.025,0.447c-0.201-0.406-0.482-0.979-0.482-0.979s-0.28,0.57-0.481,0.979
		c-0.444-0.194-1.026-0.446-1.026-0.446s0.251,0.585,0.444,1.031c-0.406,0.2-0.974,0.483-0.974,0.483S45.377,73.689,45.783,73.89
		 M52.835,62.962c0.056-0.021,0.11-0.043,0.166-0.065c0.063-0.024,0.128-0.052,0.19-0.074c0.064-0.026,0.129-0.052,0.19-0.076
		c0.056-0.023,0.111-0.044,0.166-0.066c0.699-0.276,1.251-0.497,1.251-0.497s0.219-0.559,0.497-1.259
		c0.022-0.055,0.041-0.107,0.063-0.165c0.025-0.063,0.053-0.127,0.076-0.19c0.025-0.066,0.051-0.129,0.078-0.193
		c0.021-0.058,0.041-0.111,0.064-0.168c0.326-0.831,0.663-1.681,0.799-2.03c0.139,0.348,0.475,1.201,0.803,2.03
		c0.021,0.057,0.045,0.111,0.063,0.168c0.026,0.063,0.05,0.127,0.077,0.192c0.023,0.062,0.051,0.128,0.074,0.189
		c0.022,0.059,0.045,0.11,0.065,0.167c0.276,0.702,0.498,1.258,0.498,1.258s0.551,0.221,1.249,0.496
		c0.057,0.023,0.109,0.045,0.168,0.067c0.062,0.024,0.127,0.049,0.189,0.076c0.062,0.023,0.129,0.051,0.19,0.074
		c0.058,0.023,0.11,0.045,0.166,0.066c0.825,0.328,1.675,0.667,2.021,0.805c-0.346,0.138-1.194,0.477-2.021,0.806
		c-0.056,0.021-0.108,0.044-0.166,0.063c-0.062,0.026-0.128,0.051-0.19,0.074c-0.062,0.028-0.129,0.054-0.189,0.079
		c-0.059,0.021-0.111,0.043-0.168,0.064c-0.698,0.277-1.249,0.5-1.249,0.5s-0.219,0.555-0.498,1.256
		c-0.021,0.056-0.041,0.108-0.063,0.165c-0.025,0.062-0.051,0.129-0.076,0.192c-0.025,0.062-0.051,0.128-0.077,0.191
		c-0.021,0.057-0.041,0.112-0.063,0.167c-0.328,0.828-0.664,1.683-0.801,2.03c-0.138-0.349-0.475-1.2-0.801-2.03
		c-0.023-0.055-0.044-0.11-0.064-0.167c-0.027-0.063-0.053-0.129-0.078-0.191c-0.023-0.063-0.051-0.129-0.074-0.192
		c-0.022-0.057-0.043-0.109-0.065-0.165c-0.278-0.701-0.497-1.256-0.497-1.256s-0.552-0.223-1.251-0.5
		c-0.055-0.021-0.11-0.043-0.166-0.064c-0.062-0.025-0.126-0.051-0.19-0.079c-0.062-0.023-0.127-0.048-0.19-0.074
		c-0.056-0.021-0.11-0.043-0.166-0.063c-0.824-0.329-1.676-0.668-2.021-0.806C51.159,63.629,52.011,63.292,52.835,62.962
		 M52.376,59.745c0.349,0.119,1.462,0.496,2.427,0.824c0.057,0.019,0.114,0.038,0.168,0.058c-0.021,0.057-0.043,0.111-0.063,0.165
		c-0.232,0.59-0.404,1.024-0.423,1.069c-0.047,0.021-0.479,0.191-1.066,0.427c-0.054,0.021-0.107,0.044-0.165,0.065
		c-0.019-0.056-0.039-0.112-0.058-0.17C52.871,61.213,52.495,60.096,52.376,59.745 M57.956,60.568
		c0.966-0.328,2.081-0.705,2.427-0.824c-0.115,0.351-0.492,1.468-0.816,2.438c-0.021,0.058-0.039,0.114-0.058,0.17
		c-0.056-0.021-0.11-0.045-0.166-0.065c-0.586-0.233-1.018-0.405-1.065-0.427c-0.021-0.046-0.19-0.481-0.422-1.069
		c-0.022-0.054-0.043-0.108-0.066-0.165C57.844,60.606,57.9,60.587,57.956,60.568 M60.383,67.786
		c-0.346-0.115-1.461-0.493-2.426-0.819c-0.057-0.02-0.113-0.04-0.167-0.058c0.021-0.057,0.043-0.111,0.063-0.166
		c0.231-0.591,0.403-1.025,0.424-1.072c0.048-0.019,0.479-0.189,1.064-0.422c0.055-0.022,0.11-0.044,0.166-0.068
		c0.018,0.058,0.037,0.112,0.057,0.169C59.891,66.321,60.268,67.441,60.383,67.786 M54.803,66.967
		c-0.965,0.326-2.078,0.704-2.427,0.819c0.119-0.347,0.495-1.465,0.819-2.437c0.018-0.058,0.037-0.112,0.057-0.169
		c0.059,0.023,0.111,0.046,0.165,0.067c0.587,0.231,1.021,0.404,1.065,0.422c0.02,0.048,0.19,0.484,0.424,1.074
		c0.021,0.053,0.043,0.108,0.064,0.163C54.917,66.927,54.859,66.947,54.803,66.967 M52.646,65.132
		c-0.492,1.472-1.207,3.597-1.207,3.597s2.117-0.717,3.58-1.213c0.597,1.504,1.36,3.449,1.36,3.449s0.767-1.945,1.359-3.449
		c1.464,0.496,3.581,1.213,3.581,1.213s-0.715-2.125-1.209-3.597c1.498-0.596,3.433-1.363,3.433-1.363s-1.935-0.771-3.433-1.366
		c0.494-1.472,1.209-3.597,1.209-3.597s-2.117,0.716-3.581,1.211c-0.595-1.502-1.361-3.447-1.361-3.447s-0.767,1.944-1.358,3.447
		c-1.465-0.495-3.58-1.211-3.58-1.211s0.715,2.125,1.207,3.597c-1.496,0.598-3.432,1.366-3.432,1.366S51.15,64.536,52.646,65.132
		 M49.594,50.935c0.329,0.195,0.715,0.16,0.855-0.083c0.143-0.241-0.012-0.595-0.342-0.793c-0.332-0.194-0.715-0.158-0.857,0.083
		C49.109,50.382,49.264,50.739,49.594,50.935 M40.749,37.133l1.75-0.959l-0.089-0.175l-1.164-2.421l-2.121,0.183l0.13,0.271
		L40.749,37.133z M43.453,41.629c0.383,0,0.695-0.313,0.695-0.698c0-0.385-0.312-0.699-0.695-0.699
		c-0.383,0-0.695,0.313-0.695,0.699C42.758,41.316,43.069,41.629,43.453,41.629 M38.142,38.433l1.023-0.492l0.765-0.384
		l-0.091-0.182l-1.708-3.551l-2.158,0.098l0.133,0.282L38.142,38.433z M32.889,34.236l2.379,4.943l0.113,0.012
		c0.414,0.052,0.952-0.052,1.693-0.321l0.215-0.08l-2.336-4.849l-2.206-0.002L32.889,34.236z M46.701,33.232
		c0.384,0,0.697-0.312,0.697-0.699c0-0.385-0.313-0.698-0.697-0.698c-0.385,0-0.696,0.313-0.696,0.698
		C46.005,32.919,46.316,33.232,46.701,33.232 M91.775,54.01c-2.099,4.966-6.683,8.184-11.971,8.401
		c-5.525,0.229-8.922-1.882-10.801-3.693c-1.368-1.32-2.372-2.91-2.931-4.592V54.1h-0.007c-0.328-0.998-0.5-2.023-0.5-3.046
		c0-3.708,1.324-5.575,2.461-6.046c0.449-0.189,0.858-0.145,1.121,0.121c0.416,0.417,0.414,1.179-0.053,2.16
		c-0.828,1.737-1.767,4.081-1.421,6.541c0.308-2.676,1.917-7.734,5.899-8.768c0.521-0.137,0.971,0.068,1.294,0.448
		c0.28,0.333,0.422,0.679,0.347,1.046c-0.418,2.092-3.854,0.792-5.4,5.331c0,0,1.457-1.981,2.652-2.542
		c1.465-0.688,1.944,0.163,1.932,0.712c-0.006,0.36-0.271,0.722-0.789,1.079l-0.073,0.047c-1.263,0.867-2.604,1.871-3.093,3.59
		c-0.56,1.986,0.248,3.728,2.037,4.846C78.025,63.086,84.59,60.1,84.59,60.1c-3.859,1.288-9.053,0.843-11.512-1.067
		c-1.128-0.879-1.1-1.626-0.703-1.864c0.365-0.223,1.229,0.295,1.229,0.295s-0.896-1.636-0.636-2.514
		c0.06-0.202,0.201-0.337,0.438-0.417c0.529-0.171,0.918,0.261,1.621,1.438c2.035,3.399,4.658,3.338,4.658,3.338
		s-2.498-0.927-3.146-2.928c-0.143-0.441-0.119-0.829,0.109-1.16c0.201-0.288,0.508-0.444,0.84-0.427
		c0.541,0.028,1.088,0.49,1.539,1.302c0.82,1.473,2.115,2.347,3.644,2.517c1.403,0.156,3.474-0.69,4.304-1.98
		c-1.154,0.433-2.386-1.036-1.166-1.974c5.914-4.546,3.344-12.642,3.344-12.642l-0.403,0.207c-0.011,0.004-0.249,0.124-0.538,0.011
		c-0.324-0.125-0.613-0.502-0.841-1.092c-0.546-1.428-1.429-2.98-2.847-4.315c-0.699-0.658-0.57-1.093,0.359-0.612
		c1.661,0.858,3.221,2.029,4.602,3.586c2.25,2.533,3.41,5.615,3.41,8.802C92.896,50.402,92.527,52.231,91.775,54.01 M85.266,64.432
		c0.576,1.604,0.008,3.62-1.807,5.208c-3.447,3.021-9.158,3.169-12.381-0.07c-0.303-0.303-0.662-0.418-0.984-0.311
		c-0.287,0.093-0.494,0.348-0.544,0.66c-0.006,0.048-0.012,0.096-0.012,0.142c0,0.339,0.19,0.669,0.534,0.917
		c0.744,0.537,2.089,0.866,3.363,1.15c0.008,0.002,0.013,0.004,0.021,0.008v-0.004c0.142,0.031,0.282,0.063,0.422,0.095
		c0.738,0.162,1.437,0.312,1.825,0.471c0.658,0.267,0.959,0.774,0.959,1.22c0,0.103-0.02,0.198-0.047,0.29
		c-0.334,1.063-2.481,0.79-2.481,0.79s4.028,2.412,4.111,4.938c0.021,0.648-0.203,1.237-0.778,1.486
		c-1.085,0.471-2.081-0.634-1.753-1.513c0.155-0.414,0.541-0.646,1.037-0.646h0.315c0,0-0.149-1.047-2.979-3.021l-1.613-1.217
		c-3.959-3.484-5.691-7.278-6.193-10.015c-0.717-3.883,0.447-5.158,1.268-4.334c1.215,1.218,2.831,2.181,5.236,3.56
		c0.404,0.23,0.654,0.546,0.699,0.888c0.039,0.29-0.069,0.584-0.297,0.812c-0.713,0.718-1.985,0.084-2.916-0.379l-1.266-0.614
		c0,0,3.303,7.673,9.92,5.847c-2.388,0-3.888-0.479-4.89-1.07c-0.625-0.368-0.431-0.666,0.212-0.528
		c3.055,0.654,7.098,0.549,9.039-1.893c0.787-0.989,0.911-2.17,0.27-2.812c0,0.684-0.035,1.438-0.74,1.891
		c-1.041,0.666-2.762-0.157-2.578-1.739c0.099-0.828,0.688-1.446,1.699-1.693C83.209,62.633,84.814,63.19,85.266,64.432
		 M86.229,66.492c0.445-1.755,0.455-2.919,1.584-2.624c0.553,0.144,0.891,0.809,0.867,1.594c-0.094,3.265-4.438,5.216-4.438,5.216
		s1.096,1.231,0.267,2.728c-0.72,1.297-3.005,2.242-5.75,2.105c-1.028-0.049-1.561-0.699-1.561-1.433
		c0-0.708,0.508-1.357,1.786-1.547C81.652,72.069,85.348,69.948,86.229,66.492 M73.668,79.062c-1.257-1.265-2.154-2.835-3.314-3.648
		c2.844,3.804,4.22,6.881,3.018,9.129c-0.528,0.993-1.971,1.175-2.666,0.38c-0.534-0.609-0.189-1.503,0.17-1.743
		c0.413-0.272,0.961-0.189,1.457,0.21l0.238,0.193c0,0,0.859-2.559-1.373-4.8c0.322,0.612,0.896,1.892,0.945,2.691
		c0.086,1.477-1.646,1.238-1.646-0.002c0-3.354-1.232-5.445-1.807-6.427c-0.293-0.494-0.584-0.725-0.961-0.707
		c-0.301,0.013-0.568,0.213-0.682,0.509c-0.139,0.36-0.021,0.776,0.314,1.114l0.771,0.639c2.31,1.881,1.084,3.629,0.067,3.629
		c-0.333,0-0.626-0.131-0.889-0.398c-0.732-0.747-1.162-2.439-1.237-4.827v-3.126c0-3.006,1.178-2.217,1.476-1.736
		c3.76,5.515,6.479,6.531,7.667,7.728C76.271,78.925,75.093,80.493,73.668,79.062 M65.309,75.029v5.025
		c0,0.967-0.062,1.859-0.182,2.69c-0.17,1.03-0.634,1.38-1.486,1.305l-2.166-0.261c-1.264-0.153-1.238-1.172-0.582-1.273
		l2.438-0.377l-3.872-0.467c-1.265-0.152-1.239-1.171-0.584-1.276l2.429-0.376l-3.877-0.467c-1.264-0.15-1.242-1.171-0.585-1.272
		l2.437-0.377l-3.881-0.47c-1.264-0.15-1.238-1.171-0.584-1.271h0.002l2.435-0.38l-3.871-0.466c-1.261-0.15-1.237-1.171-0.583-1.273
		l2.428-0.378l-3.875-0.464c-1.264-0.152-1.238-1.172-0.584-1.274l2.434-0.379l-3.872-0.467c-1.265-0.151-1.241-1.171-0.586-1.274
		l2.432-0.375l-3.878-0.468h-0.002c-1.261-0.151-1.238-1.172-0.583-1.272l2.435-0.379l-3.875-0.465
		c-1.263-0.153-1.239-1.169-0.585-1.274l2.435-0.378l-3.881-0.467c-1.263-0.151-1.24-1.171-0.585-1.271l2.439-0.382l-3.883-0.466
		c-1.264-0.151-1.242-1.17-0.585-1.271l2.442-0.381l-3.884-0.467c-1.263-0.15-1.241-1.168-0.587-1.268l2.442-0.38l-3.883-0.466
		c-1.262-0.154-1.238-0.98-0.583-1.083l-0.002-0.002c2.821,0.092,4.252-0.862,4.706-1.246c3.23,0.625,5.532-0.38,6.771-1.184h17.269
		v20.167H65.309z M64.568,85.094c-0.027,0.083-0.057,0.168-0.086,0.248c-0.162,0.384-0.354,0.641-0.734,0.594l-0.237-0.028
		c-1.262-0.151-1.237-1.171-0.583-1.274l0.95-0.149C64.389,84.433,64.664,84.695,64.568,85.094 M59.454,90.181L28.811,58.07
		l-0.118-0.127v-3.074h3.82l3.632,3.792l0.247,0.259l0.238,0.249l1.789,1.868l0.239,0.251h-0.001l1.786,1.865h0.002l23.056,24.088
		C62.545,88.611,61.203,89.584,59.454,90.181 M29.355,61.435l0.702-0.108c0.697-0.109,1.071,0.281,1.516,0.747
		c0.375,0.395,0.083,0.895-0.618,0.814l-1.549-0.169C28.605,62.621,28.671,61.564,29.355,61.435 M37.141,85.308
		c-0.056,0.021-0.113,0.039-0.168,0.057c-0.966,0.327-2.079,0.708-2.427,0.824c0.117-0.349,0.492-1.468,0.819-2.438
		c0.018-0.058,0.037-0.113,0.056-0.17c0.056,0.021,0.111,0.043,0.165,0.066c0.587,0.231,1.02,0.404,1.067,0.424
		c0.018,0.046,0.189,0.48,0.421,1.071C37.096,85.195,37.118,85.252,37.141,85.308 M42.552,86.188
		c-0.346-0.118-1.46-0.497-2.427-0.824c-0.056-0.018-0.112-0.036-0.168-0.057c0.024-0.056,0.044-0.11,0.065-0.163
		c0.233-0.591,0.404-1.026,0.422-1.072c0.047-0.019,0.48-0.191,1.067-0.425c0.054-0.022,0.11-0.045,0.167-0.065
		c0.017,0.056,0.036,0.112,0.055,0.17C42.06,84.721,42.435,85.84,42.552,86.188 M39.957,79.024c0.056-0.018,0.112-0.038,0.168-0.057
		c0.967-0.328,2.081-0.704,2.427-0.822c-0.117,0.349-0.492,1.467-0.818,2.438c-0.02,0.059-0.038,0.114-0.055,0.169
		c-0.057-0.021-0.113-0.043-0.167-0.063c-0.587-0.234-1.021-0.407-1.067-0.429c-0.018-0.045-0.188-0.48-0.422-1.069
		C40.001,79.136,39.981,79.081,39.957,79.024 M34.546,78.146c0.348,0.118,1.46,0.494,2.427,0.822
		c0.055,0.019,0.112,0.039,0.168,0.055c-0.023,0.059-0.044,0.113-0.066,0.167c-0.233,0.589-0.404,1.025-0.421,1.07
		c-0.047,0.021-0.48,0.192-1.067,0.428c-0.054,0.02-0.109,0.042-0.165,0.062c-0.02-0.054-0.039-0.109-0.058-0.167
		C35.038,79.612,34.663,78.494,34.546,78.146 M35.17,81.296c0.063-0.025,0.125-0.052,0.189-0.075
		c0.067-0.024,0.13-0.051,0.192-0.075c0.057-0.022,0.111-0.044,0.166-0.065c0.699-0.279,1.252-0.499,1.252-0.499
		s0.219-0.555,0.496-1.257c0.022-0.056,0.043-0.11,0.065-0.167c0.025-0.062,0.05-0.128,0.077-0.192
		c0.025-0.062,0.05-0.125,0.076-0.19c0.021-0.057,0.043-0.109,0.063-0.167c0.33-0.829,0.664-1.682,0.803-2.03
		c0.135,0.35,0.473,1.201,0.8,2.03c0.021,0.058,0.043,0.11,0.064,0.167c0.025,0.065,0.052,0.128,0.077,0.191
		c0.027,0.063,0.051,0.13,0.077,0.193c0.021,0.055,0.044,0.109,0.065,0.165c0.276,0.702,0.495,1.257,0.495,1.257
		s0.554,0.22,1.252,0.499c0.055,0.021,0.11,0.043,0.166,0.065c0.062,0.024,0.126,0.051,0.192,0.075
		c0.064,0.023,0.126,0.05,0.19,0.075c0.054,0.021,0.11,0.045,0.165,0.065c0.827,0.327,1.675,0.667,2.023,0.805
		c-0.348,0.14-1.196,0.478-2.023,0.805c-0.055,0.022-0.111,0.045-0.165,0.065c-0.064,0.025-0.126,0.053-0.19,0.077
		c-0.066,0.024-0.13,0.051-0.192,0.073c-0.055,0.022-0.11,0.045-0.166,0.068c-0.699,0.276-1.252,0.497-1.252,0.497
		s-0.219,0.555-0.495,1.256c-0.021,0.057-0.044,0.111-0.065,0.168c-0.026,0.061-0.05,0.126-0.077,0.191
		c-0.025,0.063-0.05,0.129-0.075,0.193c-0.022,0.053-0.044,0.107-0.066,0.163c-0.327,0.831-0.664,1.685-0.8,2.032
		c-0.137-0.348-0.473-1.201-0.801-2.032c-0.023-0.056-0.044-0.108-0.066-0.163c-0.025-0.064-0.051-0.13-0.076-0.193
		c-0.027-0.065-0.052-0.131-0.077-0.191c-0.021-0.057-0.042-0.111-0.065-0.168c-0.277-0.701-0.496-1.256-0.496-1.256
		s-0.553-0.221-1.252-0.497c-0.054-0.023-0.108-0.046-0.166-0.068c-0.062-0.022-0.125-0.049-0.192-0.073
		c-0.064-0.024-0.126-0.052-0.189-0.077c-0.056-0.021-0.111-0.043-0.167-0.065c-0.827-0.327-1.675-0.665-2.021-0.807
		c0.346-0.136,1.194-0.476,2.021-0.803C35.059,81.339,35.114,81.317,35.17,81.296 M54.493,90.889c-4.03,0-6.375,0.602-7.493,1.925
		c-1.117-1.323-3.462-1.925-7.492-1.925c-2.574,0-4.666-0.422-6.301-1.278c-0.606-0.38-0.548-0.768-0.001-0.874l1.589-0.247
		l-3.126-0.377c-0.881-0.096-1.139-1.275-0.456-1.408h0.002l2.134-0.333l-3.054-0.365c-0.799-0.099-0.804-1.178-0.121-1.309
		l2.833-0.443l-3.332-0.4c-0.799-0.094-0.806-1.117-0.121-1.252l2.104-0.326c0.583,0.234,1.999,0.797,3.16,1.259
		c-0.496,1.471-1.209,3.596-1.209,3.596s2.117-0.716,3.583-1.211c0.592,1.501,1.359,3.445,1.359,3.445s0.765-1.944,1.359-3.445
		c1.464,0.495,3.581,1.211,3.581,1.211s-0.713-2.125-1.208-3.596c1.497-0.595,3.432-1.365,3.432-1.365s-1.935-0.77-3.432-1.366
		c0.495-1.471,1.208-3.598,1.208-3.598s-2.117,0.719-3.583,1.217c-0.593-1.504-1.357-3.449-1.357-3.449s-0.768,1.945-1.361,3.449
		c-1.464-0.498-3.581-1.217-3.581-1.217s0.713,2.127,1.209,3.598c-1.125,0.445-2.497,0.995-3.108,1.236l-2.304-0.274
		c-0.8-0.097-0.734-1.142-0.05-1.273l3.018-0.469l-2.968-0.357c-0.799-0.097-0.734-1.159-0.051-1.293h0.001l3.011-0.465
		l-2.962-0.355c-0.799-0.1-0.733-1.162-0.05-1.296h0.001l3.011-0.468l-2.961-0.356c-0.8-0.097-0.734-1.159-0.05-1.291l3.011-0.47
		l-2.962-0.355c-0.799-0.099-0.733-1.161-0.049-1.293l3.011-0.47l-2.961-0.354c-0.8-0.099-0.734-1.161-0.05-1.293l3.009-0.467
		l-2.959-0.359c-0.8-0.092-0.734-1.158-0.05-1.293l3.009-0.467l-2.959-0.354c-0.8-0.097-0.734-1.16-0.05-1.294l3.009-0.467
		l-2.96-0.356c-0.799-0.098-0.733-1.151-0.049-1.284l2.12-0.301c0.647-0.053,1.283,0.06,1.713,0.51l25.438,26.655
		C57.42,90.734,56.046,90.889,54.493,90.889 M25.708,42.327c-0.515-0.807,0.962-2.364,3.174-2.728c0,0-3.47-0.541-5.694,2.642
		c-0.312,0.449-0.621,0.722-0.946,0.684c-0.217-0.025-0.4-0.18-0.462-0.408c-0.428-1.529,2.674-3.824,2.674-3.824
		s-2.16,0.732-2.611-0.193c-0.449-0.929,0.555-2.024,3.454-2.325c-1.356-0.347-3.486-0.408-5.229,0.522
		c-1.042,0.553-1.566,1.612-1.716,2.873c-0.301,2.494-0.346,3.983-1.448,3.672c-0.924-0.262-0.783-3.229-0.783-3.229
		s-1.291,1.328-1.217,4.651c0.01,0.425-0.005,0.744-0.173,0.955c-0.195,0.248-0.498,0.28-0.5,0.282l-0.485,0.051l0.156,0.461
		c0.067,0.189,0.192,0.758-0.014,1.12c-0.108,0.188-0.296,0.341-0.591,0.361c-1.543,0.109-2.099-3.163-2.099-3.163
		c-1.212,0.183-1.921-0.402-1.857-1.909c0.149-3.676,3.528-6.292,3.528-6.292s-4.121,1.847-4.455,7.072
		c-0.095,1.48,0.435,3.083,0.755,3.71c0.37,0.728,0.7,1.374,0.7,1.904c0,0.522-1.441,1.796-3.255-2.06
		c0.371,2.745,2.169,4.432,4.49,5.111c1.144,0.334,1.804,0.544,1.893,1.429c0.056,0.554-0.172,0.966-0.671,1.219
		c-0.996,0.51-2.693,0.006-4.181-1.344c-3.739-3.393-3.483-8.559-2.818-10.517c0,0,0.981,0.463,1.955-1.698
		c1.326-2.947,3.762-6.307,9.842-7.016c0.554-0.066,1.06,0.323,0.313,0.667c-4.722,2.169-5.058,6.047-5.058,6.047
		c3.942-8.261,12.533-6.686,18.065-4.241c2.459,1.214,2.377,2.443,3.779,3.5c2.001,1.508,5.095,2.541,5.527,2.933
		c0.749,0.659-0.979,1.8-1.866,0.908c-2.503-2.514-5.185-3.02-7.812-2.401l-1.624,0.477C27.016,42.696,26.084,42.914,25.708,42.327
		 M27.933,54.1h-0.007v0.026c-0.558,1.683-1.56,3.272-2.929,4.592c-1.879,1.812-5.276,3.923-10.8,3.693
		c-5.289-0.217-9.875-3.435-11.969-8.401c-0.752-1.779-1.122-3.608-1.122-5.405c0-3.187,1.16-6.269,3.407-8.802
		c1.384-1.557,2.942-2.728,4.605-3.586c0.93-0.481,1.058-0.046,0.359,0.612c-1.419,1.335-2.301,2.887-2.848,4.315
		c-0.226,0.589-0.516,0.966-0.841,1.092c-0.288,0.112-0.527-0.007-0.537-0.011l-0.404-0.207c0,0-2.826,6.63,2.714,12.192
		c0.761,0.765,1.019,1.374,0.596,1.8c-0.493,0.495-2.021-0.37-2.021-0.37s2.407,3.172,5.193,2.975
		c1.534-0.109,2.824-1.043,3.643-2.517c0.452-0.813,0.999-1.275,1.539-1.302c0.333-0.017,0.64,0.139,0.839,0.427
		c0.23,0.331,0.255,0.718,0.112,1.16c-0.648,2.001-3.147,2.928-3.147,2.928s2.625,0.061,4.658-3.337
		c0.706-1.176,1.092-1.609,1.622-1.438c0.237,0.08,0.379,0.214,0.439,0.417c0.26,0.879-0.636,2.514-0.636,2.514
		s0.951-0.433,1.314-0.209c0.395,0.239,0.379,0.956-0.787,1.781c-4.849,3.433-11.512,1.087-11.512,1.087
		c3.614,1.885,9.096,1.622,11.975-0.638c1.661-1.3,2.52-3.177,2.169-4.711c-0.399-1.742-1.83-2.723-3.093-3.59l-0.072-0.047
		c-0.518-0.357-0.785-0.717-0.792-1.079c-0.012-0.55,0.435-1.329,1.933-0.712c1.979,0.813,3.218,3.152,3.218,3.152
		c-1.308-4.876-5.548-3.849-5.967-5.942c-0.074-0.368,0.066-0.714,0.349-1.046c0.324-0.38,0.917-0.44,1.438-0.303
		c4.669,1.228,5.771,5.774,5.771,8.495c0.491-1.716,0.308-3.794-1.295-6.554c-0.545-0.94-0.61-1.601-0.197-2.019
		c0.264-0.265,0.673-0.31,1.124-0.121c1.135,0.471,2.46,2.338,2.46,6.046C28.434,52.078,28.262,53.103,27.933,54.1 M27.722,65.011
		c-0.502,2.737-2.236,6.53-6.196,10.015l-1.613,1.217c-2.828,1.975-2.978,3.021-2.978,3.021h0.317c0.494,0,0.88,0.23,1.035,0.646
		c0.33,0.879-0.667,1.983-1.752,1.513c-0.576-0.249-0.8-0.838-0.778-1.486c0.083-2.525,4.111-4.938,4.111-4.938
		s-2.148,0.271-2.482-0.79c-0.028-0.092-0.045-0.188-0.045-0.29c0-0.443,0.297-0.953,0.958-1.22c0.39-0.159,1.088-0.309,1.826-0.471
		c0.139-0.03,0.28-0.062,0.421-0.095v0.004c0.008-0.004,0.013-0.006,0.021-0.008c1.275-0.284,2.619-0.613,3.364-1.15
		c0.343-0.248,0.534-0.578,0.534-0.917c0-0.046-0.005-0.094-0.013-0.142c-0.048-0.313-0.256-0.567-0.543-0.66
		c-0.323-0.106-0.68,0.008-0.984,0.311c-3.223,3.239-8.934,3.092-12.381,0.07c-1.813-1.588-2.383-3.604-1.806-5.208
		c0.449-1.241,2.057-1.799,3.327-1.489c1.011,0.246,1.601,0.863,1.699,1.693c0.185,1.582-1.537,2.406-2.578,1.739
		c-0.704-0.453-0.741-1.207-0.741-1.891c-0.641,0.643-0.516,1.823,0.271,2.812c1.942,2.441,5.984,2.547,9.038,1.893
		c0.644-0.138,0.837,0.16,0.212,0.528c-1.001,0.592-2.502,1.07-4.89,1.07c6.619,1.825,9.919-5.847,9.919-5.847l-1.263,0.614
		c-0.931,0.463-2.204,1.097-2.917,0.379c-0.227-0.229-0.335-0.522-0.297-0.812c0.045-0.342,0.294-0.657,0.7-0.888
		c2.406-1.379,4.024-2.342,5.238-3.56C27.271,59.852,28.437,61.126,27.722,65.011 M27.926,75.002
		c-0.075,2.388-0.504,4.081-1.235,4.826c-0.264,0.27-0.555,0.399-0.89,0.399c-1.016,0-2.244-1.748,0.067-3.629l0.771-0.639
		c0.335-0.338,0.453-0.754,0.314-1.115c-0.112-0.294-0.381-0.494-0.682-0.508c-0.376-0.018-0.668,0.212-0.959,0.707
		c-0.574,0.982-1.807,3.073-1.807,6.426c0,1.242-1.734,1.479-1.646,0.002c0.047-0.798,0.622-2.077,0.945-2.689
		c-2.232,2.24-1.373,4.799-1.373,4.799l0.237-0.192c0.498-0.4,1.045-0.483,1.457-0.21c0.36,0.239,0.706,1.134,0.171,1.742
		c-0.696,0.795-2.137,0.612-2.667-0.38c-1.202-2.247,0.174-5.325,3.018-9.129c-1.16,0.812-2.058,2.384-3.315,3.648
		c-1.424,1.431-2.604-0.137-1.549-1.194c1.19-1.196,3.908-2.213,7.668-7.728c0.297-0.48,1.474-1.27,1.474,1.736L27.926,75.002
		L27.926,75.002z M15.242,75.511c-2.745,0.137-5.03-0.809-5.749-2.105c-0.829-1.496,0.267-2.728,0.267-2.728
		s-4.345-1.951-4.438-5.216c-0.022-0.785,0.314-1.45,0.867-1.594c1.129-0.295,1.139,0.869,1.585,2.624
		c0.88,3.456,4.575,5.577,7.242,6.039c1.279,0.189,1.788,0.839,1.788,1.547C16.803,74.812,16.271,75.462,15.242,75.511 M3.13,34.211
		c0.28-1.017,0.999-1.861,2.021-2.382c0.926-0.472,2.029-0.627,2.932-0.428c0.874,0.176,0.626,0.686,0.139,0.763
		c-1.111,0.177-2.018,0.619-2.484,1.511c-0.511,0.978-0.207,1.814,0.038,2.487c0.269,0.74,0.364,1.084-0.169,1.49
		c-0.479,0.367-1.083,0.369-1.613,0.007C3.234,37.144,2.671,35.875,3.13,34.211 M5.54,27.663c0-0.732,0.48-0.959,0.871-0.993
		c1.174-0.107,1.956,1.399,3.792,2.177c-0.945-0.949-3.127-4-2.711-5.309c0.073-0.228,0.167-0.393,0.373-0.5
		c0.598-0.309,1.085,0.339,2.324,2.275l0.625,0.97c3.735,5.804,10.674,5.994,14.224,6.785c-2.74-1.466-6.349-1.162-9.229-4.696
		c-2.639-3.168-2.641-8.666,0.09-12.487c-1.515,0.943-2.243,3.173-2.733,4.873c-0.202,0.7-0.67,0.967-0.67,0.043
		c0-1.95,0.53-4.248,2.288-6.678c2.426-3.354,6.398-4.507,8.587-3.428c2.292,1.128,1.945,4.983-1.537,4.983
		c-2.543,0-4.526,1.267-5.217,2.324c-0.335,0.514-0.299,1.097,0.127,1.17c0.462,0.08,0.825-0.39,1.307-0.986
		c2.299-2.845,4.184-1.594,4.023-0.577c-0.094,0.602-0.769,0.922-1.591,1.373c-1.243,0.678-2.791,1.522-3.479,3.628
		c-0.226,0.687-0.473,2.096,0.395,3.798c0.762,1.496,2.622,3.579,7.136,5.014c1.841,0.585,3.372,1.194,4.873,1.899
		c0.365,0.171,1.284,0.853,1.6,1.764c0.316,0.911-0.271,1.083-0.72,0.902c-1.612-0.642-3.359-1.228-5.229-1.675v-0.003
		c-0.007-0.001-0.017-0.003-0.026-0.004c-1.504-0.359-3.083-0.628-4.696-0.763l0.001-0.007C13.86,32.78,9.467,31.561,7.28,29.902
		C6.221,29.1,5.54,28.309,5.54,27.663 M21.924,27.542c-0.565-0.186-0.942-0.542-1.05-0.969c-0.177-0.695,0.369-1.631,1.923-1.214
		c0.522,0.138,1.899,0.962,3.048,2.228c0.331,0.366,0.179,0.849-0.342,0.682C24.077,27.811,22.627,27.772,21.924,27.542
		 M25.453,29.063c0.989-0.341,3.158,1.742,3.158,1.742s-1.664-3.833-5.584-6.076c-1.169-0.67-1.765-1.374-1.765-2.205
		c0-0.708,0.527-0.949,0.984-0.949c0.978,0,2.631,1.832,4.39,4.088c-0.517-1.597-1.959-3.504-0.414-3.889
		c1.142-0.285,1.824,1.778,2.51,3.972c0.488,1.566,0.829,2.482,1.558,4.081c0.682,1.348-0.561,2.818-1.997,2.265
		c-0.708-0.277-1.797-0.845-2.635-1.166C24.481,30.476,24.796,29.286,25.453,29.063 M24.961,9.88
		c3.905,0.136,7.801,1.814,9.964,5.812c1.8,3.327,0.802,5.523,0.046,6.538c-0.478,0.642-1.28,1.072-1.949,1.046
		c-0.244-0.01-0.575-0.087-0.772-0.402c-0.46-0.731,0.079-1.447,0.667-2.038c0.94-0.943,1.011-1.929,1.011-1.929
		s-1.251,1.077-2.153,0.959c-0.307-0.04-0.525-0.182-0.641-0.465c-0.047-0.112-0.071-0.218-0.071-0.317
		c0-0.313,0.219-0.591,0.585-1.032c0.382-0.46,0.854-1.029,0.993-1.835c0.03-0.173,0.048-0.343,0.044-0.507
		c-0.054-2.492-4.339-4.228-4.342-4.228c0,0,2.659,2.12,2.501,3.75c-0.029,0.316-0.12,0.544-0.425,0.711
		c-0.786,0.431-1.455-0.307-2.23-1.716c-0.934-1.701-2.359-2.945-3.476-3.667C24.316,10.299,24.456,9.863,24.961,9.88 M29.567,9.36
		c1.078-0.439,1.76-0.918,2.033-1.425c0.23-0.43,0.211-0.883-0.048-1.244c-0.5-0.692-1.167-0.414-1.61-0.231
		c-0.472,0.196-0.752,0.295-1.075,0.031c-0.263-0.217-0.355-0.5-0.272-0.839c0.146-0.589,0.822-1.3,1.841-1.509
		c0.987-0.206,1.793,0.012,2.332,0.626c0.616,0.708,0.777,1.852,0.409,2.921c-0.387,1.125-1.416,1.926-2.925,2.294
		C29.555,10.088,28.957,9.607,29.567,9.36 M35.886,9.228c0.05-0.774,0.415-1.276,0.888-1.569c0.377-0.194,0.688-0.037,0.73,0.564
		c0.115,1.647,1.31,2.154,1.31,2.154c-0.662-0.665-1.275-2.543-0.307-3.5c0.705-0.698,1.557-0.544,1.593-0.537l0.314,0.062
		c0,0-0.401-0.748,0.313-1.007c0.159,0.436,0.513,0.757,1.311,1.204c0.938,0.523,1.836,1.333,1.84,2.407
		c0.003,1.226-0.276,1.537,0.037,2.716c-0.408-0.204-0.966-0.705-0.934-2.068c0.02-0.869-0.192-2.125-1.934-2.714
		c0,0,1.359,0.899,1.31,2.211v0.003c-0.479-0.352-1.388-0.205-1.388-0.205s0.875,0.667,0.582,1.479
		c-0.1,0.276-0.333,0.478-0.579,0.563c0.031-0.677-0.338-1.53-1.179-2.064c0,0,0.973,1.422,0.749,2.219
		c-0.129,0.466-0.504,0.861-1.093,1.035c-1.665,0.493-2.269-1.36-2.294-1.441l-0.206-0.646l-0.188,0.649
		c-0.159,0.542-0.476,0.671-0.687,0.698c0.022-0.125,0.06-0.257,0.06-0.375c0-0.311-0.064-0.602-0.127-0.886
		C35.944,9.9,35.883,9.632,35.883,9.35C35.883,9.311,35.885,9.269,35.886,9.228 M44.199,1.851c0.499-0.411,1.07-0.786,1.624-0.686
		c0.868,0.156,1.013,1.31,1.165,2.206c0.146-0.871,0.362-2.074,1.165-2.206c0.555-0.092,1.127,0.275,1.623,0.686
		c0.718,0.59,1.23,0.768,1.563,0.783c-0.045,0.239-0.548,0.37-1.088,0.227c-0.64-0.173-0.94,0.126-0.94,0.126
		c0.907,0,1.457,0.538,1.633,1.597c0.101,0.6,0.197,0.947,0.258,1.143c-0.292,0.122-0.742-0.186-0.747-0.19l-0.22-0.163L50.139,5.63
		c-0.213,0.554-0.515,0.913-0.902,1.066c-0.369,0.146-0.738,0.076-0.943,0.012c0.462-1.519-0.775-2.491-0.775-2.491
		s0.657,1.78-0.528,2.628c-1.167-0.849-0.528-2.628-0.528-2.628s-1.24,0.972-0.776,2.491c-0.207,0.064-0.575,0.133-0.944-0.012
		c-0.388-0.153-0.69-0.512-0.903-1.066l-0.095-0.255L43.52,5.538c-0.003,0.004-0.454,0.312-0.747,0.19
		c0.061-0.195,0.158-0.543,0.257-1.143c0.178-1.059,0.727-1.597,1.636-1.597c0,0-0.303-0.301-0.944-0.126
		c-0.538,0.144-1.041,0.013-1.086-0.227C42.969,2.619,43.483,2.441,44.199,1.851 M51.936,6.597c0.799-0.447,1.153-0.768,1.312-1.204
		C53.961,5.654,53.561,6.4,53.561,6.4l0.313-0.062c0.035-0.007,0.89-0.162,1.593,0.536c0.969,0.958,0.354,2.837-0.307,3.501
		c0,0,1.193-0.506,1.311-2.154c0.039-0.601,0.353-0.757,0.729-0.564c0.473,0.293,0.839,0.795,0.887,1.569
		c0.005,0.041,0.005,0.083,0.005,0.124c0,0.282-0.059,0.549-0.122,0.831c-0.062,0.286-0.127,0.576-0.127,0.886
		c0,0.117,0.035,0.249,0.061,0.375c-0.211-0.027-0.528-0.155-0.688-0.698l-0.188-0.649l-0.202,0.646
		c-0.026,0.081-0.632,1.934-2.298,1.441c-0.586-0.173-0.963-0.568-1.094-1.035c-0.224-0.796,0.748-2.219,0.748-2.219
		c-0.839,0.534-1.207,1.386-1.178,2.064c-0.245-0.085-0.479-0.287-0.579-0.563c-0.292-0.812,0.581-1.479,0.581-1.479
		s-0.906-0.146-1.388,0.205V9.15c-0.05-1.314,1.312-2.211,1.312-2.211c-1.742,0.589-1.953,1.845-1.935,2.714
		c0.032,1.362-0.526,1.863-0.933,2.068c0.312-1.179,0.029-1.49,0.033-2.716C50.102,7.93,50.997,7.121,51.936,6.597 M59.075,15.691
		c2.163-3.998,6.061-5.676,9.965-5.812c0.507-0.017,0.646,0.419,0.247,0.677c-1.117,0.723-2.54,1.966-3.477,3.667
		c-0.774,1.409-1.443,2.147-2.23,1.716c-0.305-0.167-0.396-0.395-0.426-0.711c-0.155-1.63,2.502-3.75,2.502-3.75
		c-0.002,0-4.285,1.736-4.342,4.228c-0.002,0.165,0.016,0.334,0.045,0.507c0.14,0.806,0.611,1.376,0.994,1.835
		c0.365,0.441,0.584,0.719,0.584,1.033c0,0.101-0.024,0.206-0.07,0.317c-0.115,0.284-0.333,0.425-0.643,0.465
		c-0.901,0.118-2.152-0.959-2.152-0.959s0.072,0.985,1.011,1.929c0.588,0.59,1.128,1.307,0.668,2.038
		c-0.196,0.314-0.528,0.393-0.772,0.402c-0.668,0.026-1.472-0.405-1.949-1.046C58.273,21.215,57.273,19.018,59.075,15.691
		 M61.234,4.768c0.537-0.614,1.343-0.832,2.33-0.626c1.019,0.209,1.694,0.92,1.84,1.509c0.082,0.339-0.008,0.622-0.271,0.839
		c-0.319,0.264-0.604,0.166-1.073-0.031c-0.444-0.182-1.11-0.461-1.61,0.231c-0.261,0.361-0.277,0.815-0.048,1.244
		c0.271,0.507,0.955,0.986,2.033,1.425c0.609,0.247,0.012,0.728-0.688,0.623c-1.507-0.368-2.537-1.169-2.925-2.294
		C60.455,6.62,60.616,5.476,61.234,4.768 M60.271,47.665c-1.527-0.845-2.57-1.615-2.854-1.832c0.016-0.151,0.027-0.301,0.027-0.438
		c0-0.915-0.348-1.466-0.705-1.811c-0.057-0.056-0.115-0.107-0.174-0.151c-0.152-0.124-0.309-0.238-0.463-0.352
		c-0.982-0.714-1.978-1.352-2.318-3.001c-0.227-1.091-0.062-2.302,0.299-3.219c-0.141,4.079,2.223,5.166,3.432,5.456
		c0.41,0.098,0.688,0.106,0.688,0.106s-0.126-0.086-0.312-0.267c-0.637-0.617-2.007-2.396-1.746-6.156l0.006-0.029
		c0.754,2.473,2.441,3.061,3.432,3.836c0.137,0.108,0.26,0.222,0.364,0.342c0.017,0.016,0.03,0.03,0.044,0.044
		c0.269,0.325,0.599,0.831,0.908,1.276c0.216,0.312,0.416,0.584,0.58,0.75c0.031,0.032,0.063,0.069,0.095,0.093
		c-0.009,0.005-0.017,0.007-0.021,0.01c-0.402,0.185-1.014,0.183-1.258,0.16l-0.326-0.036c0,0,0.563,1.853,3.061,2.362
		c-0.857,0.734-2.112,0.64-2.127,0.637l-0.453-0.047c0,0,0.963,1.753,3.67,2.205C62.826,48.547,61.077,48.089,60.271,47.665
		 M38.047,40.158c0.339-0.151,0.709-0.329,1.118-0.53c2.379-1.183,4.547-2.418,6.168-3.495c0.494-0.33,0.864-0.019,0.702,0.49
		c-0.375,1.172-0.564,2.207-0.65,2.908l-0.052,0.46c-0.105,0.959-0.182,1.653-0.882,2.207c-1.201,0.947-4.463,0.238-6.6-1.04
		C37.224,40.71,37.577,40.369,38.047,40.158 M43.061,22.549c0.721-0.142,0.941,0.266,0.738,0.624
		c-0.628,1.096-0.617,2.566,0.027,3.839c0.53,1.045,1.349,1.893,2.107,2.619c0.584,0.56,0.241,1.03-0.414,1.146
		c-3.88,0.683-4.548-0.442-4.103-1.079l0.34-0.481c0,0,0.185-0.252,0.471-0.683c0.345-0.513,0.404-0.921,0.129-1.387
		c-0.364-0.535-0.813-0.614-1.858-0.526c-0.692,0.066-1.391,0.127-1.971,0.174c-0.415,0.015-0.742-0.265,0.183-1.415
		C39.88,23.925,41.291,22.984,43.061,22.549 M41.27,21.838c0.038,0.1,0.059,0.207,0.059,0.319c0,0.318-0.16,0.597-0.402,0.766
		c-0.014,0.007-0.028,0.016-0.042,0.024c-0.142,0.086-0.306,0.138-0.483,0.138c-0.51,0-0.927-0.415-0.927-0.929
		c0-0.515,0.417-0.932,0.927-0.932c0.379,0,0.705,0.23,0.849,0.557C41.257,21.803,41.261,21.822,41.27,21.838 M43.424,21.303
		c0,0.44-0.306,0.805-0.713,0.904c-0.011,0.002-0.024,0.007-0.038,0.009c-0.059,0.013-0.116,0.02-0.177,0.02
		c-0.38,0-0.706-0.23-0.85-0.558c-0.005-0.02-0.011-0.038-0.018-0.055c-0.036-0.1-0.059-0.208-0.059-0.32
		c0-0.512,0.414-0.932,0.926-0.932c0.44,0,0.807,0.312,0.902,0.726c0.004,0.045,0.007,0.096,0.019,0.139
		C43.419,21.259,43.424,21.282,43.424,21.303 M44.832,16.151c0.427,0.772-0.192,1.491-0.894,1.17
		c-0.72-0.329-1.101-1.275-1.165-1.781c0.361-0.124,0.902-0.108,0.902-0.108s-0.249-1.015-2.037-1.939
		c0.626-0.482,1.423-0.018,1.423-0.018s-0.623-2.132-1.804-1.455c-0.121-0.625,0.607-1.106,1.232-0.83
		C43.809,11.776,43.507,13.752,44.832,16.151 M46.781,18.941c0,0.72-0.722,0.785-1.083,0.051c-0.221-0.397-0.372-0.877-0.412-1.517
		c0.358,0.007,0.885,0.328,0.885,0.328s-0.126-0.72-0.688-1.698c-0.356-0.623-0.755-1.128-0.844-2.108
		c0.92,0.408,1.391-0.035,1.391-0.035s-1.549-0.951-1.57-2.16c0.748,0.358,1.472,0,1.472,0s-1.436-1.002-1.535-2.215
		C45.165,9.82,45.62,9.5,45.62,9.5s-1.188-1.203-1.279-2.552c0.664,0.773,2.439,0.549,2.439,2.118v9.875H46.781z M47.914,20.986
		c0,0.513-0.415,0.929-0.923,0.93c-0.009,0-0.017,0-0.023-0.001c-0.24-0.004-0.466-0.101-0.636-0.271
		c-0.175-0.174-0.273-0.409-0.273-0.658c0-0.249,0.098-0.482,0.273-0.658c0.176-0.176,0.406-0.275,0.655-0.275
		C47.497,20.053,47.914,20.473,47.914,20.986 M49.576,9.586c-0.098,1.212-1.533,2.215-1.533,2.215s0.723,0.358,1.471,0
		c-0.02,1.209-1.568,2.16-1.568,2.16s0.471,0.443,1.39,0.035c-0.089,0.98-0.485,1.485-0.843,2.108
		c-0.561,0.978-0.688,1.698-0.688,1.698s0.525-0.319,0.887-0.328c-0.041,0.64-0.192,1.12-0.414,1.517
		c-0.361,0.732-1.082,0.669-1.082-0.051V9.066c0-1.569,1.773-1.345,2.438-2.118C49.543,8.297,48.355,9.5,48.355,9.5
		S48.809,9.82,49.576,9.586 M52.718,12.02c-1.182-0.677-1.804,1.455-1.804,1.455s0.799-0.465,1.425,0.018
		c-1.79,0.924-2.04,1.938-2.04,1.938s0.54-0.014,0.903,0.109c-0.063,0.506-0.443,1.452-1.165,1.781
		c-0.703,0.32-1.32-0.398-0.896-1.17c1.326-2.399,1.023-4.375,2.344-4.96C52.109,10.915,52.837,11.396,52.718,12.02 M53.216,24.373
		c-0.174,0-0.336-0.051-0.477-0.138c-0.054-0.042-0.106-0.082-0.159-0.12c-0.178-0.17-0.29-0.408-0.29-0.674
		c0-0.16,0.044-0.311,0.114-0.441c0.027-0.038,0.049-0.075,0.07-0.113c0.172-0.229,0.438-0.377,0.74-0.377
		c0.514,0,0.93,0.417,0.93,0.931S53.729,24.373,53.216,24.373 M50.395,22.216c0-0.249,0.097-0.484,0.272-0.659
		c0.174-0.175,0.407-0.272,0.656-0.272c0.509,0,0.925,0.417,0.925,0.931c0,0.158-0.043,0.306-0.114,0.44
		c-0.026,0.036-0.048,0.074-0.069,0.11c-0.027,0.039-0.054,0.076-0.086,0.107c-0.174,0.176-0.41,0.273-0.654,0.273
		c-0.249,0-0.482-0.097-0.656-0.273C50.49,22.7,50.395,22.467,50.395,22.216 M48.292,21.376c0-0.248,0.097-0.482,0.271-0.659
		c0.177-0.175,0.408-0.271,0.656-0.271c0.512,0,0.926,0.418,0.926,0.931c0,0.514-0.414,0.932-0.926,0.932
		c-0.052,0-0.102-0.007-0.148-0.014c-0.069-0.021-0.141-0.039-0.209-0.058c-0.109-0.046-0.211-0.114-0.299-0.201
		C48.389,21.859,48.292,21.625,48.292,21.376 M55.955,45.042c-0.352-0.061-0.739-0.084-1.162-0.049
		c-0.135,0.014-0.273,0.03-0.415,0.055c-0.435,0.075-0.896,0.214-1.394,0.448c-2.035,0.956-4.916,3.014-5.225,3.238
		c-0.246-0.018-1.362-0.042-2.987,0.947c-1.815,1.105-3.253,1.36-4.277,0.751c-0.37-0.217-0.544-0.496-0.518-0.822
		c0.06-0.795,1.213-1.82,2.874-2.597c0.544-0.243,0.87,0.367,0.339,0.627c-2.501,1.216-2.547,1.887-1.951,2.176
		c0.938,0.451,2.924-0.743,3.319-1.003c2.278-1.492,3.244-1.311,3.253-1.311c0,0,4.104-3.347,5.965-3.938
		c0.602-0.191,1.229-0.277,1.805-0.14c0.261,0.064,0.509,0.167,0.738,0.337c0.021,0.016,0.039,0.034,0.058,0.05
		C56.952,44.3,56.879,45.206,55.955,45.042 M50.186,48.601c-0.636-0.396-0.217-0.877,0.109-1.089
		c0.932-0.596,1.982-1.228,2.865-1.643c1.79-0.846,3.146-0.337,3.915,0.221c0.153,0.112,0.313,0.233,0.507,0.373
		c0.3,0.224,0.682,0.492,1.242,0.837c0.35,0.23,0.435,0.458,0.363,0.655c-0.082,0.229-0.369,0.417-0.707,0.516
		c-1.174,0.35-2.318,0.994-3.448,1.679c-0.214,0.129-1.054,0.707-1.98,0.152C52.125,49.742,50.82,48.998,50.186,48.601 M36.94,54.1
		c0.022-0.055,0.045-0.108,0.081-0.171c0.837-1.468,3.084-2.768,4.547-2.768c1.088,0,2.106-0.328,3.417-1.128
		c1.664-1.012,2.893-0.876,2.893-0.876s0.95-0.887,2.159-0.163c0.679,0.407,1.691,1.004,2.452,1.455
		c0.599,0.354,0.604,0.869,0.03,1.193c-0.396,0.212-0.793,0.411-1.188,0.577c-1.313,0.493-2.599-0.574-2.599-0.574
		s-4.628,3.813-7.716,1.557l-0.157-0.112l-0.123,0.149c-0.007,0.007-0.39,0.444-1.188,0.858c-0.507,0.262-1.179,0.516-2.035,0.644
		C37.084,54.801,36.729,54.62,36.94,54.1 M45.191,47.169c0.438,0.742-0.616,1.161-0.93,0.538c-0.565-1.133-1.599-2.744-2.645-3.992
		c-0.653-0.722,0.367-0.9,0.845-0.355C43.63,44.64,44.598,46.15,45.191,47.169 M46.113,42.426c0.613,0.682,1.433,1.641,2.168,2.637
		c0.248,0.334,0.729,1.017-0.066,1.504c-0.494,0.304-0.754,0.384-1.277,0.563c-0.292,0.098-1.063,0.343-1.542-0.422
		c-0.491-0.825-1.185-1.892-2.008-2.905c-0.222-0.272-0.278-0.722,0.349-0.874c0.383-0.093,0.718-0.208,0.967-0.406
		c0.138-0.108,0.254-0.221,0.354-0.336C45.381,41.806,45.814,42.091,46.113,42.426 M43.819,21.155
		c-0.005-0.047-0.008-0.096-0.018-0.141c-0.002-0.021-0.007-0.044-0.007-0.066c0-0.515,0.415-0.933,0.928-0.933
		c0.511,0,0.928,0.418,0.928,0.933c0,0.248-0.097,0.481-0.272,0.658c-0.174,0.177-0.407,0.273-0.655,0.273
		C44.282,21.879,43.914,21.569,43.819,21.155 M48.452,31.684c-0.011-0.025-0.03-0.044-0.042-0.067
		c-0.282-0.551-0.885-1.097-1.577-1.723c-0.936-0.845-1.996-1.801-2.64-3.07c-0.583-1.149-0.581-2.463-0.038-3.447
		c0.583-1.055,1.996-1.104,2.62-0.478c1.752,1.761,1.108,6.757,1.108,6.757s1.758-0.619,2.117-2.62
		c0.07,0.327,0.134,0.712,0.134,1.216c0,0.779-0.661,3.249-0.661,3.249s1.766-0.235,2.344-2.053c0.787,3.823-1.719,5.377-3.308,6
		c0.981,0.083,2.529-0.271,3.492-1.106c-0.255,1.83-3.551,2.918-3.551,2.918c0.991,0.16,2.663-0.2,3.296-0.673
		c-0.243,1.458-3.115,2.647-3.115,2.647c0.919,0.118,2.518-0.275,3.085-0.847c0.073,1.535-2.521,2.825-2.521,2.825
		c0.886,0,1.924-0.313,2.779-1.013c0,1.597-1.957,2.928-1.957,2.928c0.877-0.081,1.916-0.64,2.551-1.277
		c-0.143,1.115-1.467,2.703-2.401,3.346c-0.353,0.241-0.991,0.385-1.454-0.241c-1.254-1.728-2.798-3.369-3.16-3.747
		c0.095-0.358,0.142-0.747,0.188-1.174l0.052-0.454c0.509-2.641,1.146-4.245,2.178-5.585C48.656,33.105,48.771,32.331,48.452,31.684
		 M40.341,47.06c-0.016-0.016-0.38-0.304-0.53-0.424c0.357-0.27,0.999-0.71,2.024-1.086c0.591-0.251,1.322,0.849,0.752,1.131
		c-1.775,0.876-2.928,1.949-3.021,2.897c-0.069,0.708,0.53,1.189-0.748,2.046c-0.582,0.391-1.133,0.781-1.861,1.658
		c-0.327,0.391-0.666,0.525-0.519-0.333c0.095-0.553,0.726-1.265,0.726-1.265S36.459,49.526,40.341,47.06 M55.898,31.375
		c0,0,0.629,0.886,0.281,2.308c-0.562,2.296-0.882,3.53-0.338,6.64c-1.492-1.326-1.359-4.927-1.355-4.938
		c0,0-2.221,2.373-1.08,7.065c-0.979-1.427-1.246-3.169-1.141-4.745c0.166-2.424,1.447-4.379,1.447-4.379s-1.051,0.417-1.76-0.136
		c1.207-2.693-0.271-5.198-0.271-5.198s-0.195,1.479-1.162,2.05c0.672-2.779-0.845-4.748-0.845-4.748s0.259,2.033-1.06,2.995
		c0.222-1.848-0.454-4.292-0.874-5.015c-0.198-0.335-0.253-0.813,0.635-0.379c1.058,0.517,2.474,1.458,3.618,3.082
		c1.324,1.875,1.788,4.087,1.885,6.524c0,0,0.527-2.42-0.26-4.389c1.455,1.969,3.73,1.669,3.73,1.669
		c-3.341-0.539-3.426-2.747-5.695-5.211c-0.456-0.498,0.134-0.612,0.842,0c1.124,0.856,2.229,1.916,3.423,3.118
		c2.435,2.446,5.438,2.008,6.754,1.652C60.134,32.343,55.898,31.375,55.898,31.375 M73.129,26.573
		c-0.109,0.428-0.484,0.783-1.051,0.969c-0.702,0.23-2.154,0.269-3.58,0.725c-0.521,0.168-0.673-0.316-0.342-0.682
		c1.148-1.265,2.525-2.09,3.047-2.228C72.759,24.941,73.303,25.878,73.129,26.573 M71.756,21.575c0.457,0,0.984,0.241,0.984,0.949
		c0,0.831-0.602,1.529-1.764,2.205c-3.605,2.096-4.681,5.166-4.681,5.166s1.263-1.174,2.253-0.833
		c0.654,0.224,0.969,1.413-0.206,1.863c-0.837,0.32-1.989,0.665-3.677,1.429c-0.596,0.271-1.705,0.251-1.127-1.39
		c0.63-1.799,1.529-4.57,1.732-5.22c0.683-2.194,1.274-4.088,2.508-3.973c0.188,0.019,0.326,0.085,0.435,0.224
		c0.834,1.048-0.823,1.776-1.935,5.064C68.966,23.377,70.779,21.575,71.756,21.575 M62.004,33.172
		c0.199,0.115,0.458,0.277,0.732,0.495c0.154,0.125,0.316,0.27,0.475,0.43c0.189,0.196,0.829,0.947,1.059,1.557
		c-0.554,0.509-2.625,1.223-4.545,0.241c-1.445-0.74-0.551-2.523-0.551-2.523s-1.773,1.781,0.504,3.256
		c0.809,0.522,0.553,1.981-0.73,1.587c-1.229-0.377-2.469-1.525-2.312-3.453c0.124-1.581,1.092-2.581,2.713-2.919
		c0.738-0.152,1.547-0.479,2.312-1.01c0.191-0.145,0.363-0.23,0.515-0.274c0.394-0.111,0.636,0.086,0.644,0.438
		c0.007,0.189-0.055,0.419-0.198,0.671c-0.265,0.535-0.574,0.905-0.774,1.113c-0.128,0.132-0.214,0.202-0.214,0.202
		S61.779,33.043,62.004,33.172 M40.553,28.119c-0.092-0.161-0.288-0.25-0.499-0.227c-0.989,0.088-2.282,0.206-3.239,0.239
		c-0.462,0.016-0.146-0.7,0.349-0.752c0.72-0.074,2.514-0.192,4.014-0.334c0.534-0.065,1.19,0.521,0.713,1.26
		c-0.176,0.277-0.47,0.674-0.47,0.674l-0.692,0.963c-0.375,0.533-0.877,0.797-1.625,0.854c-1.19,0.092-3.23,0.216-4.122,0.216
		c-0.635,0-0.173-0.931,0.505-0.931c0.669,0,2.615-0.101,3.419-0.163c0.52-0.039,0.9-0.244,1.168-0.625l0.393-0.59
		C40.674,28.419,40.608,28.214,40.553,28.119 M33.056,32.063c4.024,0.049,7.891,0.021,12.521-0.876
		c1.217-0.236,2.084-0.075,2.425,0.74c0.221,0.529,0.087,1.132-0.538,1.801c-0.045,0.045-0.09,0.09-0.134,0.143
		c-1.262,1.239-4.6,3.312-8.346,5.175c-3.697,1.839-3.96,1.352-4.594,0.174c0,0-0.062-0.115-0.067-0.125
		c-0.002-0.002-0.215-0.449-0.536-1.116c-0.044-0.088-0.089-0.182-0.135-0.277c-0.162-0.335-0.342-0.712-0.534-1.108
		c-0.096-0.2-0.195-0.403-0.292-0.611c-0.28-0.579-0.565-1.171-0.83-1.722c-0.026-0.058-0.053-0.112-0.082-0.17
		c-0.295-0.613-0.557-1.16-0.744-1.543c-0.129-0.272-0.223-0.464-0.26-0.541c0.089,0.002,0.176,0.002,0.263,0.007
		c0.616,0.021,1.228,0.04,1.834,0.046v0.005C33.023,32.068,33.04,32.063,33.056,32.063 M34.629,51.707
		c-0.475,0.707-0.646,1.524-0.646,2.297c0,0.034,0.002,0.064,0.002,0.096H31.04c0.124-0.271,0.248-0.542,0.37-0.809
		c1.115-2.446,2.118-4.643,3.822-5.61c0.455-0.257,0.855,0.201,0.554,0.609c-0.681,0.927-1.191,2.032-1.191,3.079
		C34.595,51.37,34.614,51.562,34.629,51.707 M60.73,53.277c0.349-0.776,0.383-1.715-0.603-1.907c-1.079-0.21-3.042,0.687-4.542,1.64
		c-0.398,0.253-0.781,0.508-1.104,0.723c-0.756,0.44-1.451,0.03-0.852-0.436c0.549-0.294,1.141-0.65,1.873-1.111
		c1.238-0.77,4.266-2.437,5.688-1.292c0.869,0.697,0.545,1.927,0.291,2.567C61.146,54.12,60.402,53.868,60.73,53.277L60.73,53.277z
		 M61.691,50.271c-0.248-0.197-0.532-0.342-0.853-0.435c-1.36-0.393-3.354,0.177-5.751,1.673c-2.152,1.343-2.984,1.767-5.359,2.432
		c-0.129-0.077-1.058-0.627-1.058-0.627l-0.112,0.126c-0.008,0.01-0.274,0.299-0.787,0.658c-0.355,0.247-0.831,0.526-1.419,0.769
		c-1.245,0.51-3,0.852-5.234,0.353l-0.11-0.023l-0.081,0.08c-0.016,0.019-1.693,1.667-5.69,1.102
		c-0.029-0.06-0.07-0.155-0.116-0.273c-0.112-0.285-0.253-0.722-0.329-1.236c-0.034-0.229-0.057-0.467-0.057-0.719
		c0-0.018,0.003-0.036,0.003-0.05c0.002-0.165,0.011-0.33,0.031-0.498c0.072-0.542,0.256-1.107,0.631-1.636l0.051-0.073
		l-0.019-0.089c-0.03-0.14-0.044-0.285-0.044-0.435c0-1.384,1.21-3.166,2.505-4.111l0.251-0.182c0,0-0.402-0.246-0.537-0.328
		c1.104-1.065,2.079-1.644,3.345-2.156c0.609-0.215,0.827,0.313,0.339,0.526c-1.299,0.528-2.231,1.3-2.279,1.34l-0.192,0.164
		c0,0,0.359,0.288,0.509,0.407c-2.449,1.796-2.871,3.303-2.871,4.098c0,0.252,0.037,0.399,0.064,0.497
		c-0.546,0.793-0.717,1.53-0.717,2.124c0,0.124,0.008,0.24,0.021,0.351c0.035,0.323,0.11,0.585,0.181,0.77
		c0.064,0.166,0.121,0.269,0.13,0.284l0.059,0.102h0.118c1.011,0,1.841-0.161,2.514-0.385c0.674-0.229,1.185-0.515,1.544-0.77
		c0.265-0.188,0.452-0.358,0.56-0.466c0.301,0.202,0.61,0.355,0.927,0.466c1.068,0.381,2.19,0.291,3.218,0
		c1.8-0.511,3.307-1.641,3.694-1.953c0.209,0.125,1.479,0.878,1.479,0.878l0.083-0.021c1.438-0.366,2.879-1.253,4.273-2.112
		c1.738-1.067,3.521-2.16,5.326-2.264c0.344-0.021,0.688-0.007,1.037,0.052c0.301,0.052,0.604,0.138,0.911,0.263
		c0.003,0.001,0.005,0.002,0.011,0.004c0.871,0.355,1.479,1.045,1.707,1.94c0.062,0.257,0.098,0.522,0.098,0.789
		c0,0.464-0.102,0.938-0.29,1.388c-0.015,0.028-0.027,0.052-0.039,0.079c-0.169,0.338-0.379,0.546-0.562,0.619
		c-0.297,0.121-0.521-0.118-0.352-0.755c0.001-0.002,0.001-0.007,0.001-0.009c0.067-0.258,0.097-0.545,0.097-0.837
		C62.553,51.497,62.35,50.8,61.691,50.271 M86.895,48.605c-0.358,0.73-1.021,1.504-1.771,1.504c-0.604,0-0.989-0.372-0.989-0.893
		c0-0.53,0.328-1.177,0.699-1.904c0.32-0.628,0.85-2.23,0.754-3.71c-0.334-5.225-4.456-7.072-4.456-7.072s3.38,2.616,3.53,6.292
		c0.062,1.507-0.835,2.118-1.867,2.118c0,0-0.77,3.284-2.091,2.954c-0.286-0.071-0.94-0.482-0.604-1.481l0.156-0.461L79.771,45.9
		c-0.002-0.002-0.306-0.034-0.5-0.282c-0.168-0.211-0.184-0.529-0.174-0.955c0.075-3.323-1.218-4.651-1.218-4.651
		s0.142,2.967-0.78,3.229c-1.103,0.312-1.147-1.177-1.449-3.672c-0.15-1.26-0.674-2.319-1.717-2.873
		c-1.742-0.93-3.871-0.869-5.229-0.522c2.898,0.302,3.902,1.396,3.453,2.325c-0.45,0.925-2.61,0.193-2.61,0.193
		s3.104,2.294,2.677,3.824c-0.063,0.228-0.246,0.383-0.464,0.408c-0.327,0.039-0.586-0.273-0.946-0.684
		c-1.722-1.955-3.885-3.162-6.545-2.796c0,0,1.772,0.16,3.263,1.096c0.579,0.366,1.438,1.108,0.764,1.785
		c-0.897,0.9-2.3-0.917-5.346-1.076c-0.179-0.01-0.671,0.109-1.177-0.481c-0.555-0.646-1.174-1.591-0.938-2.145
		c0.358-0.846,3.013-1.904,4.146-2.339c5.463-2.098,12.781-2.705,16.645,4.768c0,0-0.314-3.726-4.863-6.047
		c-0.73-0.375-0.437-0.732,0.117-0.667c6.081,0.709,8.746,4.105,9.844,7.016C87.596,43.683,87.992,46.372,86.895,48.605
		 M88.078,43.972c-0.15-1.015,0.617-0.921,0.761-0.042c0.06,0.371,0.093,0.743,0.093,1.124c0,1.172,0.254,5.319-3.076,8.518
		c-1.447,1.394-3.185,1.854-4.181,1.344c-0.5-0.252-0.726-0.665-0.671-1.219c0.089-0.885,0.747-1.095,1.895-1.429
		c2.32-0.679,3.719-1.827,4.488-3.336C88.204,47.328,88.289,45.42,88.078,43.972 M70.629,10.695
		c2.238-0.971,6.163,0.075,8.588,3.428c1.315,1.816,1.942,3.56,2.176,5.14c0.078,0.532-0.174,1.037-0.537,0.185
		c-0.816-1.913-2.275-3.808-4.155-4.474c2.481,1.855,3.95,5.073,3.681,8.262c-0.479,5.654-5.257,7.665-8.398,8.87
		c4.143-0.839,8.103-0.707,11.207-5.823l0.627-0.97c1.238-1.936,1.725-2.583,2.322-2.275c0.205,0.107,0.301,0.272,0.371,0.5
		c0.417,1.309-1.765,4.359-2.71,5.309c1.836-0.779,2.617-2.285,3.791-2.177c0.392,0.034,0.872,0.261,0.872,0.992
		c0,0.646-0.682,1.438-1.742,2.24c-2.188,1.658-6.582,2.876-13.058,3.631l0.001,0.007c-1.611,0.135-5.234,0.787-7.159,1.429
		c-1.541,0.516-2.812-1.237-1.685-1.878c1.131-0.638,2.74-1.064,4.646-1.67c4.516-1.434,6.372-3.518,7.137-5.014
		c0.867-1.702,0.619-3.111,0.395-3.797c-0.688-2.106-2.234-2.95-3.479-3.628c-0.824-0.451-1.496-0.771-1.593-1.373
		c-0.157-1.017,1.726-2.268,4.025,0.577c0.481,0.597,0.843,1.066,1.306,0.986c0.428-0.073,0.465-0.657,0.129-1.17
		c-0.691-1.057-2.597-2.218-5.217-2.324C68.938,15.55,67.725,11.956,70.629,10.695 M88.85,31.829
		c1.023,0.521,1.74,1.366,2.021,2.382c0.459,1.664-0.102,2.932-0.864,3.449c-0.53,0.362-1.133,0.36-1.612-0.007
		c-0.531-0.406-0.438-0.75-0.168-1.49c0.242-0.673,0.547-1.51,0.035-2.487c-0.465-0.894-1.371-1.334-2.482-1.511
		c-0.486-0.078-0.734-0.586,0.14-0.763C86.82,31.203,87.924,31.359,88.85,31.829 M90.439,39.195l-0.28-0.324l0.362-0.227
		c0.052-0.031,0.093-0.042,0.133-0.053c0.371-0.255,1.518-1.208,1.518-3.184c0-0.481-0.072-0.987-0.213-1.499
		c-0.366-1.327-1.289-2.423-2.6-3.089c-0.235-0.123-0.498-0.208-0.797-0.311l-0.549-0.184l0.402-0.417
		c0.708-0.732,1.102-1.451,1.168-2.134c0.007-0.071,0.012-0.142,0.012-0.207c0-0.502-0.181-0.971-0.521-1.353
		c-0.352-0.396-0.828-0.625-1.381-0.66l-0.488-0.032l0.173-0.461c0.19-0.511,0.283-0.929,0.284-1.248l-0.051-0.516
		c-0.116-0.557-0.453-1.008-0.957-1.267c-1.493-0.772-2.369,0.448-3.79,2.667c0,0-0.623,0.961-0.625,0.964
		c-0.026,0.041-0.054,0.071-0.074,0.099c-0.011,0.012-0.021,0.023-0.024,0.032l-0.632-0.357c0.063-0.144,0.138-0.283,0.206-0.419
		c0.117-0.23,0.229-0.446,0.301-0.662c0.409-1.205,0.617-2.441,0.617-3.678c0-2.497-0.843-4.926-2.503-7.223
		c-1.677-2.319-4.028-3.58-5.671-3.985c-2.318-0.573-4.527-0.704-6.302-0.811c-1.13-0.066-2.054-0.129-2.816-0.264L63.968,8.15
		l1.316-0.462c0.2-0.071,0.388-0.176,0.563-0.32c0.461-0.378,0.715-0.909,0.715-1.492c0-0.164-0.021-0.331-0.061-0.497
		c-0.275-1.128-1.365-2.072-2.712-2.352c-1.388-0.288-2.599,0.063-3.408,0.989c-0.567,0.649-0.883,1.549-0.883,2.533
		c0,0.514,0.084,1.018,0.253,1.504c0,0.001,0,0.001,0,0.001l-0.688,0.239c0-0.001,0-0.001-0.002-0.003
		c-0.356-1.057-1.289-1.82-2.496-2.039l-0.133-0.023l-0.082-0.101c-0.012-0.017-0.035-0.043-0.021-0.03
		c-0.42-0.425-0.938-0.695-1.587-0.825l-0.156-0.03l-0.082-0.135c-0.477-0.776-1.283-1.071-1.643-1.121
		c-0.043-0.005-0.118,0.027-0.221,0.099l-0.513-0.5c0.271-0.42,0.402-0.801,0.402-1.163l-0.007-0.718
		c0-0.107-0.049-0.209-0.133-0.279s-0.191-0.096-0.3-0.076L51.66,1.433c-0.001,0.004-0.006,0.016-0.008,0.016l-0.271,0.037
		L51.32,1.103L51.27,0.778l-0.185,0.189l-0.097,0.096l0.187,0.375c-0.083-0.037-0.304-0.136-0.579-0.41
		c-0.686-0.687-1.619-1.068-2.502-1.024c-0.283,0.014-0.583,0.105-0.944,0.288l-0.162,0.083l-0.164-0.082
		c-0.361-0.182-0.66-0.273-0.943-0.288c-0.883-0.044-1.818,0.337-2.5,1.024c-0.381,0.38-0.679,0.44-0.757,0.445l-0.066,0.012
		l-0.065-0.014c0,0-0.617-0.125-0.614-0.125c-0.105-0.02-0.214,0.009-0.299,0.079c-0.083,0.067-0.13,0.169-0.133,0.278
		c0,0-0.005,0.711-0.005,0.709c0,0.368,0.132,0.75,0.404,1.17l-0.509,0.501c-0.106-0.071-0.181-0.104-0.224-0.099
		c-0.358,0.05-1.164,0.345-1.642,1.119L39.388,5.24l-0.155,0.03c-0.636,0.128-1.155,0.392-1.529,0.764
		c-0.008,0.008-0.032,0.038-0.05,0.058l-0.032,0.041c0,0-0.086,0.101-0.085,0.101l-0.128,0.023C36.28,6.46,35.4,7.119,34.992,8.064
		l-0.684-0.247C34.433,7.369,34.5,6.943,34.5,6.552c0-0.983-0.313-1.882-0.88-2.532c-0.813-0.926-2.025-1.277-3.411-0.989
		c-1.347,0.278-2.436,1.224-2.711,2.351c-0.041,0.167-0.061,0.334-0.061,0.497c0,0.583,0.254,1.113,0.714,1.492
		c0.177,0.146,0.362,0.249,0.564,0.321l1.322,0.461L28.66,8.394c-0.764,0.138-1.688,0.199-2.814,0.266
		c-1.776,0.106-3.985,0.237-6.303,0.811c-1.642,0.405-3.995,1.666-5.671,3.984c-1.66,2.295-2.501,4.725-2.501,7.223
		c0,1.234,0.207,2.471,0.615,3.678c0.072,0.215,0.182,0.43,0.299,0.658c0.069,0.135,0.143,0.275,0.208,0.42l-0.632,0.354
		c-0.006-0.005-0.016-0.017-0.026-0.03c-0.021-0.026-0.047-0.059-0.077-0.101c0,0-0.618-0.958-0.621-0.96
		c-1.42-2.219-2.295-3.438-3.789-2.667c-0.504,0.261-0.844,0.712-0.96,1.273c-0.005,0.062-0.018,0.19-0.047,0.476
		c0,0.351,0.093,0.771,0.284,1.282l0.173,0.462l-0.49,0.032c-0.558,0.035-1.023,0.259-1.384,0.662
		c-0.339,0.38-0.519,0.848-0.519,1.353c0,0.067,0.004,0.133,0.011,0.204c0.067,0.684,0.459,1.401,1.169,2.135
		c0,0,0.402,0.417,0.381,0.423l-0.548,0.184c-0.278,0.094-0.54,0.182-0.778,0.302c-1.309,0.668-2.232,1.765-2.6,3.091
		c-0.141,0.515-0.212,1.019-0.212,1.498c0,1.971,1.14,2.923,1.514,3.182c0.036,0.01,0.081,0.021,0.137,0.057l0.363,0.226
		l-0.28,0.324C1.265,41.849,0,45.212,0,48.66c0,1.98,0.399,3.931,1.187,5.795c1.435,3.401,4.021,6.128,7.28,7.678
		c0,0,0.607,0.288,0.605,0.29l-0.573,0.354c-0.114,0.068-0.349,0.215-0.689,0.062c-0.652-0.292-1.358-0.3-2.042-0.023
		c-0.963,0.388-1.554,1.369-1.576,2.619c0,0.79,0.271,3.523,3.753,5.565l0.25,0.147l-0.089,0.278
		c-0.081,0.264-0.122,0.514-0.122,0.766c0,0.584,0.18,1.187,0.536,1.79c1.009,1.72,3.676,2.729,6.963,2.631l0.8-0.021l-0.51,0.62
		c-0.75,0.918-1.147,1.848-1.147,2.686c0,1.159,0.422,1.954,1.328,2.5c0.754,0.451,1.685,0.394,2.551-0.157
		c0,0,0.636-0.402,0.636-0.404l-0.08,0.749l-0.012,0.125c0.002,0.919,0.213,1.753,0.612,2.418c0.601,1.004,1.586,1.526,2.705,1.433
		c0.799-0.063,1.438-0.402,1.849-0.977c0.335-0.47,0.505-1.081,0.507-1.792c0,0-0.055-0.692-0.055-0.682
		c-0.06-0.547-0.098-1.07-0.11-1.553c0,0-0.014-0.513,0.019-0.503l0.487,0.153c0.247,0.08,0.479,0.153,0.738,0.153
		c0.402,0,0.809-0.144,1.249-0.436l0.53-0.354l0.034,0.64c0.055,1.029,0.146,1.838,0.288,2.542c0.346,1.729,0.972,3.202,1.856,4.382
		c1.942,2.579,5.223,3.886,9.75,3.886c4.937,0,6.833,1.481,7.502,2.29c0.692-0.801,2.633-2.29,7.482-2.29
		c7.49,0,11.482-3.641,11.867-10.827l0.033-0.649l0.534,0.365c0.444,0.302,0.862,0.449,1.271,0.449c0.259,0,0.491-0.073,0.77-0.162
		l0.487-0.154l-0.014,0.513c-0.014,0.481-0.049,1.006-0.109,1.542c0,0-0.057,0.691-0.055,0.663c0,0.739,0.17,1.352,0.507,1.819
		c0.409,0.574,1.05,0.915,1.848,0.979c1.119,0.094,2.104-0.429,2.706-1.433c0.398-0.665,0.607-1.498,0.611-2.418l-0.014-0.128
		c0,0-0.078-0.749-0.078-0.744l0.636,0.404c0.866,0.549,1.797,0.606,2.553,0.155c0.904-0.546,1.327-1.341,1.327-2.5
		c0-0.838-0.398-1.768-1.146-2.686l-0.511-0.62l0.8,0.021c3.286,0.099,5.955-0.911,6.963-2.633c0.355-0.603,0.537-1.204,0.537-1.788
		c0-0.252-0.041-0.502-0.123-0.766l-0.086-0.278l0.25-0.147c2.768-1.622,3.752-3.9,3.752-5.481
		c-0.024-1.323-0.599-2.311-1.576-2.703c-0.685-0.276-1.39-0.269-2.043,0.023c-0.344,0.153-0.578,0.006-0.69-0.064l-0.002-0.001
		l-0.567-0.353l0.604-0.288c3.259-1.55,5.846-4.278,7.28-7.678C93.602,52.592,94,50.641,94,48.66
		C94,45.208,92.736,41.848,90.439,39.195"/>
	<g>
		<path d="M4.728,108.376h2.276l1.656,6.502l0.496,2.067l0.496-2.083l1.626-6.484h2.276v10.356h-1.471v-8.181l-0.511,2.054
			l-1.641,6.127H8.304l-1.595-6.127l-0.51-2.054v8.181H4.728V108.376z"/>
		<path d="M17.595,108.376h1.734l2.756,10.357h-1.656l-0.667-2.675h-2.647l-0.635,2.675h-1.61L17.595,108.376z M19.422,114.691
			l-1.006-4.076l-0.976,4.076H19.422z"/>
		<path d="M22.674,116.091v-0.498H24.3v0.172c0,1.241,0.573,1.834,1.672,1.834c1.037,0,1.58-0.622,1.58-1.494
			c0-0.87-0.418-1.319-1.966-2.035c-1.379-0.64-2.772-1.462-2.772-3.11c0-1.557,1.13-2.83,3.096-2.83
			c1.952,0,3.206,1.229,3.206,2.907v0.404h-1.58v-0.171c0-0.947-0.48-1.758-1.672-1.758c-0.944,0-1.409,0.562-1.409,1.291
			c0,0.824,0.434,1.198,2.199,2.053c1.811,0.873,2.555,1.649,2.555,3.065c0,1.74-1.316,3.078-3.282,3.078
			C23.974,118.999,22.674,117.754,22.674,116.091z"/>
		<path d="M32.476,109.869h-2.508v-1.491h6.657v1.491h-2.508v8.864h-1.64L32.476,109.869L32.476,109.869z"/>
		<path d="M37.802,108.376h5.574v1.479h-3.932v2.722h2.834v1.399h-2.834v3.282h3.932v1.477h-5.574V108.376z"/>
		<path d="M44.708,108.376h3.467c2.028,0,2.771,1.013,2.771,2.551v0.699c0,1.15-0.418,1.803-1.578,2.007
			c1.146,0.124,1.626,1.057,1.626,1.959v1.586c0,0.279,0.153,0.403,0.512,0.403v1.277H51.18c-1.361,0-1.826-0.374-1.826-1.555
			v-1.696c0-0.81-0.355-1.353-1.238-1.353h-1.767v4.478h-1.64V108.376z M48.007,113.06c0.836,0,1.284-0.452,1.284-1.339v-0.808
			c0-0.653-0.264-1.151-1.115-1.151h-1.827v3.298H48.007L48.007,113.06z"/>
		<path d="M52.668,116.091v-0.498h1.626v0.172c0,1.241,0.573,1.834,1.672,1.834c1.038,0,1.578-0.622,1.578-1.494
			c0-0.87-0.418-1.319-1.966-2.035c-1.379-0.64-2.771-1.462-2.771-3.11c0-1.557,1.133-2.83,3.098-2.83
			c1.949,0,3.205,1.229,3.205,2.907v0.404h-1.58v-0.171c0-0.947-0.479-1.758-1.672-1.758c-0.944,0-1.408,0.562-1.408,1.291
			c0,0.824,0.432,1.198,2.197,2.053c1.812,0.873,2.556,1.649,2.556,3.065c0,1.74-1.316,3.078-3.282,3.078
			C53.969,118.999,52.668,117.754,52.668,116.091z"/>
		<path d="M61.029,108.376h1.641v4.852l3.314-4.852h1.795l-3.112,4.448l3.099,5.909h-1.812l-2.338-4.619l-0.944,1.246v3.372h-1.642
			V108.376L61.029,108.376z"/>
		<path d="M71.154,108.376h1.734l2.756,10.357h-1.655l-0.665-2.675h-2.647l-0.635,2.675h-1.61L71.154,108.376z M72.982,114.691
			l-1.006-4.076L71,114.691H72.982z"/>
		<path d="M78.094,114.534l-2.941-6.158h1.811l1.982,4.743l1.998-4.743H82.6l-2.865,6.158v4.199h-1.641V114.534z"/>
		<path d="M84.783,108.376h1.734l2.756,10.357h-1.656l-0.667-2.675h-2.647l-0.636,2.675h-1.608L84.783,108.376z M86.609,114.691
			l-1.008-4.076l-0.975,4.076H86.609z"/>
	</g>
</g>
</svg>
