<?xml version="1.0" encoding="utf-8"?>
<!-- Generator: Adobe Illustrator 16.0.0, SVG Export Plug-In . SVG Version: 6.00 Build 0)  -->
<!DOCTYPE svg PUBLIC "-//W3C//DTD SVG 1.1//EN" "http://www.w3.org/Graphics/SVG/1.1/DTD/svg11.dtd">
<svg version="1.1" id="Layer_1" xmlns="http://www.w3.org/2000/svg" xmlns:xlink="http://www.w3.org/1999/xlink" x="0px" y="0px"
	 width="94px" height="119px" viewBox="0 0 94 119" enable-background="new 0 0 94 119" xml:space="preserve">
<g>
	<path d="M90.44,39.021L90.156,38.7l0.36-0.225c0.056-0.033,0.095-0.045,0.134-0.055c0.378-0.253,1.518-1.201,1.518-3.172
		c0-0.475-0.069-0.98-0.208-1.488c-0.366-1.322-1.292-2.413-2.604-3.078c-0.233-0.123-0.496-0.208-0.793-0.309l-0.55-0.184
		l0.407-0.412c0.702-0.733,1.095-1.447,1.165-2.126c0.006-0.072,0.006-0.141,0.006-0.205c0-0.501-0.177-0.966-0.515-1.346
		c-0.355-0.394-0.835-0.623-1.389-0.658l-0.484-0.034l0.171-0.456c0.198-0.509,0.284-0.931,0.291-1.242l-0.057-0.513
		c-0.114-0.555-0.452-1.005-0.96-1.265c-1.485-0.768-2.366,0.446-3.788,2.658c0,0-0.615,0.956-0.622,0.961
		c-0.029,0.038-0.052,0.071-0.079,0.094c-0.002,0.015-0.018,0.022-0.02,0.031l-0.631-0.352c0.062-0.145,0.137-0.285,0.204-0.418
		c0.122-0.229,0.229-0.441,0.303-0.657c0.407-1.201,0.621-2.434,0.621-3.665c0-2.484-0.85-4.906-2.51-7.19
		c-1.671-2.311-4.029-3.562-5.662-3.967c-2.33-0.567-4.535-0.701-6.31-0.806c-1.127-0.069-2.048-0.131-2.816-0.263l-1.377-0.241
		l1.325-0.463c0.192-0.072,0.388-0.174,0.563-0.319c0.458-0.377,0.709-0.903,0.709-1.485c0-0.162-0.017-0.328-0.058-0.494
		c-0.279-1.123-1.369-2.065-2.711-2.339c-1.389-0.288-2.599,0.063-3.41,0.984c-0.565,0.647-0.882,1.542-0.882,2.521
		c0,0.511,0.08,1.014,0.253,1.497v0.005L59.066,8.26V8.259c-0.355-1.053-1.295-1.812-2.502-2.029l-0.126-0.027l-0.091-0.104
		c-0.006-0.016-0.029-0.04-0.019-0.024c-0.42-0.426-0.937-0.696-1.591-0.827l-0.153-0.029l-0.083-0.134
		c-0.475-0.771-1.28-1.067-1.641-1.116c-0.043-0.004-0.12,0.028-0.221,0.098l-0.509-0.498c0.268-0.418,0.405-0.797,0.405-1.158
		l-0.016-0.715c0-0.108-0.047-0.208-0.127-0.277c-0.087-0.068-0.193-0.097-0.302-0.074l-0.435,0.083
		c0,0.004-0.002,0.015-0.002,0.015L51.382,1.48l-0.065-0.379l-0.051-0.325l-0.18,0.19l-0.098,0.095l0.179,0.374
		c-0.074-0.039-0.299-0.139-0.572-0.412c-0.684-0.683-1.617-1.062-2.502-1.02c-0.279,0.014-0.584,0.105-0.942,0.285l-0.164,0.083
		l-0.162-0.083c-0.357-0.18-0.662-0.271-0.943-0.285c-0.884-0.043-1.82,0.336-2.501,1.02c-0.387,0.379-0.684,0.441-0.759,0.443
		L42.559,1.48l-0.066-0.016c0,0-0.62-0.122-0.613-0.122c-0.108-0.02-0.217,0.009-0.299,0.077c-0.088,0.069-0.134,0.169-0.137,0.278
		v0.705c0,0.368,0.128,0.748,0.401,1.166l-0.509,0.5c-0.108-0.07-0.187-0.102-0.228-0.098c-0.354,0.049-1.163,0.345-1.634,1.115
		l-0.09,0.135L39.23,5.248c-0.635,0.127-1.159,0.388-1.531,0.76c-0.005,0.008-0.03,0.039-0.047,0.059l-0.029,0.039l-0.091,0.097
		l-0.125,0.027c-1.131,0.203-2.011,0.858-2.417,1.799l-0.683-0.244c0.125-0.449,0.189-0.874,0.189-1.262
		c0-0.979-0.309-1.874-0.879-2.521c-0.808-0.921-2.019-1.271-3.408-0.984c-1.346,0.274-2.436,1.217-2.711,2.339
		c-0.042,0.166-0.059,0.332-0.059,0.494c0,0.582,0.256,1.107,0.715,1.485c0.177,0.147,0.355,0.248,0.558,0.319l1.328,0.46
		l-1.38,0.241c-0.764,0.14-1.685,0.197-2.818,0.266c-1.773,0.105-3.987,0.239-6.297,0.806c-1.644,0.405-3.998,1.659-5.678,3.967
		c-1.661,2.285-2.496,4.703-2.496,7.19c0,1.229,0.201,2.464,0.607,3.665c0.073,0.211,0.187,0.425,0.296,0.652
		c0.073,0.132,0.15,0.275,0.215,0.417l-0.634,0.354c-0.005-0.006-0.017-0.017-0.022-0.03c-0.026-0.029-0.046-0.056-0.079-0.101
		c0,0-0.624-0.953-0.624-0.957c-1.416-2.208-2.295-3.422-3.787-2.654c-0.507,0.259-0.844,0.709-0.965,1.27
		c0,0.06-0.017,0.186-0.04,0.472c0,0.347,0.087,0.77,0.28,1.276l0.171,0.459l-0.49,0.034c-0.556,0.035-1.017,0.257-1.379,0.658
		c-0.34,0.38-0.524,0.845-0.524,1.346c0,0.064,0.011,0.131,0.022,0.205c0.056,0.679,0.453,1.394,1.162,2.126
		c0,0,0.403,0.412,0.377,0.42l-0.543,0.182c-0.28,0.094-0.542,0.18-0.777,0.303c-1.313,0.666-2.229,1.756-2.599,3.078
		c-0.143,0.511-0.213,1.015-0.213,1.488c0,1.965,1.144,2.91,1.516,3.17c0.035,0.011,0.079,0.022,0.134,0.057l0.363,0.222
		l-0.277,0.324C1.264,41.663,0,45.012,0,48.447c0,1.968,0.399,3.91,1.188,5.767c1.43,3.385,4.021,6.102,7.276,7.642
		c0,0,0.606,0.288,0.606,0.293L8.5,62.498c-0.116,0.07-0.358,0.211-0.696,0.062c-0.644-0.292-1.35-0.299-2.035-0.022
		c-0.965,0.385-1.558,1.361-1.575,2.604c0,0.79,0.267,3.508,3.748,5.543l0.25,0.146L8.105,71.11
		c-0.079,0.258-0.121,0.509-0.121,0.761c0,0.582,0.174,1.182,0.54,1.784c1.004,1.711,3.671,2.717,6.956,2.616l0.81-0.02
		l-0.518,0.617c-0.754,0.913-1.147,1.839-1.147,2.675c0,1.154,0.421,1.943,1.33,2.485c0.753,0.45,1.685,0.395,2.552-0.154
		c0,0,0.634-0.403,0.634-0.405l-0.078,0.751l-0.014,0.123c0.002,0.913,0.208,1.744,0.617,2.403c0.595,1.001,1.582,1.521,2.701,1.428
		c0.801-0.063,1.436-0.4,1.852-0.973c0.331-0.466,0.501-1.073,0.501-1.785c0,0-0.051-0.688-0.051-0.676
		c-0.061-0.546-0.096-1.064-0.112-1.546c0,0-0.012-0.51,0.017-0.499l0.485,0.153c0.25,0.077,0.48,0.151,0.743,0.151
		c0.401,0,0.805-0.142,1.247-0.434l0.532-0.353l0.031,0.638c0.055,1.025,0.15,1.828,0.292,2.529
		c0.344,1.726,0.973,3.191,1.857,4.365c1.937,2.567,5.217,3.867,9.75,3.867c4.935,0,6.835,1.474,7.494,2.279
		c0.696-0.797,2.642-2.279,7.487-2.279c7.49,0,11.483-3.627,11.87-10.777l0.028-0.647l0.532,0.362
		c0.446,0.303,0.866,0.449,1.278,0.449c0.252,0,0.492-0.074,0.771-0.162l0.484-0.153l-0.017,0.51c-0.006,0.481-0.047,1-0.108,1.533
		c0,0-0.059,0.688-0.051,0.662c0,0.738,0.171,1.346,0.502,1.812c0.412,0.572,1.058,0.909,1.852,0.973
		c1.113,0.094,2.106-0.427,2.706-1.428c0.395-0.659,0.61-1.49,0.61-2.403l-0.014-0.128c0,0-0.077-0.746-0.077-0.744l0.63,0.403
		c0.872,0.549,1.803,0.604,2.557,0.154c0.909-0.542,1.327-1.331,1.327-2.485c0-0.836-0.396-1.762-1.144-2.675l-0.509-0.617
		l0.791,0.02c3.289,0.101,5.956-0.905,6.973-2.616c0.348-0.603,0.531-1.202,0.531-1.784c0-0.252-0.039-0.503-0.125-0.761
		l-0.085-0.279l0.254-0.146c2.766-1.614,3.755-3.884,3.755-5.456c-0.028-1.317-0.6-2.303-1.585-2.691
		c-0.673-0.276-1.385-0.27-2.043,0.022c-0.333,0.148-0.572,0.006-0.685-0.062l-0.006-0.005l-0.565-0.35l0.604-0.288
		c3.261-1.54,5.845-4.257,7.277-7.642C93.595,52.362,94,50.416,94,48.447C94,45.009,92.736,41.661,90.44,39.021 M88.848,31.689
		c1.022,0.519,1.742,1.359,2.022,2.372c0.463,1.658-0.104,2.917-0.863,3.432c-0.531,0.363-1.136,0.361-1.616-0.004
		c-0.526-0.407-0.433-0.747-0.168-1.485c0.246-0.669,0.55-1.502,0.036-2.475c-0.464-0.889-1.369-1.332-2.479-1.508
		c-0.494-0.077-0.737-0.581,0.138-0.758C86.817,31.067,87.929,31.218,88.848,31.689 M70.626,10.649
		c2.242-0.97,6.165,0.073,8.59,3.413c1.315,1.805,1.942,3.542,2.173,5.115c0.077,0.531-0.173,1.036-0.539,0.186
		c-0.814-1.905-2.271-3.792-4.151-4.457c2.479,1.849,3.947,5.051,3.683,8.229c-0.479,5.627-5.26,7.63-8.401,8.832
		c4.141-0.838,8.106-0.703,11.206-5.798l0.629-0.967c1.235-1.925,1.72-2.571,2.32-2.263c0.206,0.107,0.297,0.27,0.374,0.495
		c0.415,1.302-1.767,4.342-2.711,5.286c1.833-0.773,2.617-2.271,3.792-2.168c0.39,0.035,0.869,0.261,0.869,0.991
		c0,0.642-0.681,1.429-1.743,2.226c-2.188,1.651-6.579,2.865-13.056,3.615v0.01c-1.61,0.137-5.23,0.784-7.158,1.424
		c-1.541,0.509-2.809-1.233-1.685-1.868c1.136-0.639,2.738-1.061,4.65-1.665c4.516-1.425,6.372-3.502,7.135-4.992
		c0.867-1.694,0.617-3.099,0.392-3.781c-0.687-2.097-2.233-2.939-3.482-3.612c-0.818-0.448-1.492-0.767-1.587-1.368
		c-0.155-1.009,1.724-2.254,4.019,0.577c0.488,0.594,0.848,1.062,1.311,0.983c0.432-0.076,0.466-0.656,0.135-1.167
		c-0.695-1.053-2.608-2.209-5.224-2.312C68.932,15.483,67.719,11.903,70.626,10.649 M88.071,43.775
		c-0.143-1.008,0.622-0.917,0.76-0.039c0.062,0.369,0.096,0.74,0.096,1.119c0,1.165,0.258,5.294-3.071,8.479
		c-1.447,1.387-3.183,1.847-4.182,1.339c-0.503-0.254-0.722-0.665-0.67-1.215c0.086-0.879,0.749-1.094,1.893-1.424
		c2.324-0.677,3.719-1.817,4.489-3.323C88.197,47.117,88.288,45.221,88.071,43.775 M86.895,48.393
		c-0.359,0.722-1.022,1.494-1.777,1.494c-0.604,0-0.988-0.371-0.988-0.888c0-0.529,0.331-1.171,0.703-1.896
		c0.319-0.626,0.845-2.221,0.749-3.692c-0.328-5.206-4.455-7.042-4.455-7.042s3.385,2.607,3.529,6.266
		c0.068,1.497-0.835,2.106-1.864,2.106c0,0-0.769,3.27-2.088,2.941c-0.287-0.071-0.943-0.48-0.605-1.473l0.153-0.463l-0.479-0.048
		c-0.007,0-0.308-0.036-0.504-0.283c-0.17-0.209-0.177-0.526-0.175-0.947c0.079-3.31-1.216-4.633-1.216-4.633
		s0.146,2.953-0.778,3.219c-1.104,0.308-1.155-1.175-1.451-3.661c-0.147-1.251-0.669-2.308-1.72-2.859
		c-1.741-0.922-3.866-0.866-5.222-0.52c2.898,0.3,3.903,1.391,3.451,2.318c-0.456,0.922-2.61,0.191-2.61,0.191
		s3.098,2.282,2.674,3.804c-0.063,0.23-0.248,0.384-0.463,0.41c-0.326,0.038-0.588-0.276-0.943-0.682
		c-1.72-1.949-3.894-3.147-6.545-2.784c0,0,1.769,0.16,3.261,1.091c0.578,0.363,1.433,1.104,0.763,1.777
		c-0.895,0.899-2.304-0.91-5.35-1.071c-0.172-0.008-0.666,0.108-1.176-0.481c-0.549-0.64-1.171-1.581-0.937-2.135
		c0.361-0.839,3.009-1.891,4.147-2.324c5.465-2.092,12.782-2.692,16.643,4.744c0,0-0.314-3.71-4.865-6.021
		c-0.727-0.37-0.436-0.729,0.121-0.662c6.081,0.708,8.744,4.088,9.839,6.985C87.592,43.487,87.991,46.169,86.895,48.393
		 M61.687,50.05c-0.245-0.197-0.53-0.34-0.85-0.434c-1.364-0.394-3.349,0.178-5.747,1.665c-2.152,1.338-2.987,1.762-5.363,2.422
		c-0.13-0.077-1.056-0.626-1.056-0.626l-0.109,0.129c-0.015,0.009-0.28,0.296-0.789,0.657c-0.357,0.243-0.837,0.522-1.421,0.765
		c-1.244,0.508-3,0.847-5.236,0.349l-0.105-0.022l-0.084,0.08c-0.019,0.017-1.691,1.656-5.688,1.097
		c-0.029-0.063-0.073-0.156-0.12-0.272c-0.11-0.285-0.252-0.719-0.326-1.23c-0.034-0.229-0.059-0.468-0.059-0.717
		c0-0.017,0.007-0.037,0.007-0.048c0-0.167,0.005-0.331,0.029-0.5c0.068-0.539,0.254-1.096,0.634-1.627l0.049-0.072l-0.027-0.091
		c-0.022-0.137-0.036-0.278-0.036-0.432c0-1.377,1.208-3.15,2.498-4.093l0.258-0.18c0,0-0.402-0.246-0.54-0.325
		c1.11-1.06,2.075-1.638,3.344-2.148c0.612-0.212,0.822,0.315,0.337,0.527c-1.297,0.526-2.229,1.296-2.274,1.334l-0.189,0.162
		c0,0,0.355,0.284,0.509,0.406c-2.457,1.787-2.873,3.286-2.873,4.077c0,0.249,0.035,0.397,0.062,0.497
		c-0.545,0.788-0.72,1.521-0.72,2.113c0,0.126,0.012,0.238,0.024,0.352c0.034,0.319,0.107,0.581,0.184,0.765
		c0.065,0.166,0.12,0.266,0.125,0.283l0.061,0.1h0.115c1.012,0,1.84-0.163,2.518-0.383c0.668-0.229,1.186-0.514,1.543-0.765
		c0.265-0.189,0.451-0.357,0.562-0.468c0.295,0.204,0.604,0.354,0.925,0.468c1.068,0.374,2.188,0.29,3.214,0
		c1.804-0.51,3.309-1.634,3.695-1.947c0.214,0.125,1.481,0.875,1.481,0.875l0.087-0.019c1.434-0.367,2.872-1.25,4.266-2.104
		c1.747-1.065,3.527-2.15,5.333-2.253c0.342-0.021,0.686-0.009,1.035,0.05c0.302,0.053,0.605,0.138,0.906,0.26
		c0.012,0.003,0.012,0.003,0.02,0.009c0.863,0.351,1.478,1.036,1.7,1.928c0.069,0.26,0.103,0.519,0.103,0.787
		c0,0.463-0.103,0.933-0.291,1.38c-0.018,0.029-0.032,0.051-0.039,0.078c-0.167,0.339-0.383,0.547-0.566,0.617
		c-0.297,0.119-0.515-0.118-0.348-0.75V52.76c0.068-0.253,0.098-0.542,0.098-0.829C62.551,51.27,62.351,50.575,61.687,50.05
		 M60.725,53.042c0.353-0.773,0.386-1.707-0.601-1.902c-1.075-0.209-3.04,0.687-4.541,1.635c-0.394,0.253-0.78,0.505-1.104,0.718
		c-0.752,0.44-1.444,0.031-0.845-0.434c0.542-0.294,1.136-0.646,1.873-1.106c1.24-0.765,4.263-2.423,5.686-1.284
		c0.865,0.694,0.548,1.916,0.291,2.553c-0.338,0.656-1.085,0.407-0.754-0.181H60.725z M34.629,51.478
		c-0.477,0.706-0.649,1.513-0.649,2.285c0,0.034,0.005,0.065,0.005,0.1H31.04c0.125-0.271,0.25-0.54,0.375-0.806
		c1.114-2.435,2.116-4.623,3.818-5.586c0.451-0.259,0.855,0.197,0.551,0.608C35.109,49,34.59,50.101,34.59,51.141
		C34.59,51.141,34.615,51.335,34.629,51.478 M33.056,31.921c4.021,0.048,7.889,0.021,12.52-0.871
		c1.217-0.238,2.084-0.077,2.426,0.735c0.219,0.528,0.091,1.126-0.538,1.797c-0.049,0.041-0.091,0.088-0.138,0.134
		c-1.258,1.238-4.597,3.302-8.344,5.158c-3.698,1.829-3.963,1.346-4.592,0.175c0,0-0.066-0.117-0.069-0.126
		c0-0.002-0.215-0.448-0.536-1.113c-0.044-0.086-0.09-0.177-0.138-0.271c-0.159-0.334-0.335-0.712-0.528-1.107
		c-0.099-0.197-0.202-0.401-0.294-0.606c-0.28-0.578-0.563-1.167-0.833-1.714c-0.021-0.058-0.051-0.111-0.081-0.166
		c-0.297-0.616-0.558-1.158-0.743-1.537c-0.128-0.273-0.222-0.464-0.261-0.542c0.092,0,0.181,0,0.261,0.007
		c0.618,0.022,1.228,0.039,1.84,0.047v0.006C33.02,31.927,33.038,31.921,33.056,31.921 M40.55,27.996
		c-0.094-0.161-0.287-0.25-0.497-0.225c-0.995,0.087-2.28,0.203-3.239,0.24c-0.463,0.016-0.149-0.702,0.344-0.75
		c0.724-0.077,2.518-0.194,4.009-0.333c0.542-0.066,1.202,0.518,0.722,1.25c-0.171,0.277-0.472,0.671-0.472,0.671l-0.687,0.961
		c-0.382,0.533-0.879,0.795-1.626,0.849c-1.19,0.095-3.234,0.217-4.12,0.217c-0.634,0-0.182-0.929,0.502-0.929
		c0.669,0,2.612-0.1,3.417-0.161c0.524-0.038,0.902-0.242,1.167-0.621l0.395-0.587C40.669,28.291,40.606,28.09,40.55,27.996
		 M61.997,33.025c0.204,0.115,0.466,0.278,0.74,0.496c0.154,0.12,0.312,0.264,0.476,0.426c0.188,0.196,0.827,0.94,1.057,1.55
		c-0.556,0.506-2.626,1.218-4.548,0.24c-1.443-0.737-0.548-2.512-0.548-2.512s-1.776,1.772,0.502,3.239
		c0.806,0.522,0.551,1.972-0.729,1.582c-1.228-0.377-2.475-1.521-2.32-3.436c0.133-1.578,1.098-2.574,2.72-2.908
		c0.741-0.153,1.548-0.481,2.31-1.008c0.198-0.143,0.364-0.23,0.515-0.27c0.396-0.114,0.637,0.083,0.643,0.433
		c0.006,0.19-0.055,0.418-0.197,0.669c-0.265,0.532-0.573,0.902-0.771,1.105c-0.128,0.134-0.218,0.202-0.218,0.202
		S61.78,32.897,61.997,33.025 M71.751,21.48c0.463,0,0.993,0.24,0.993,0.945c0,0.826-0.609,1.521-1.763,2.195
		c-3.614,2.086-4.685,5.142-4.685,5.142s1.259-1.168,2.255-0.829c0.651,0.225,0.968,1.409-0.21,1.856
		c-0.837,0.319-1.994,0.66-3.677,1.423c-0.597,0.27-1.705,0.248-1.127-1.383c0.625-1.791,1.531-4.55,1.731-5.195
		c0.686-2.187,1.279-4.077,2.508-3.958c0.189,0.02,0.326,0.085,0.438,0.223c0.833,1.044-0.833,1.767-1.936,5.046
		C68.963,23.275,70.781,21.48,71.751,21.48 M73.126,26.457c-0.107,0.424-0.484,0.78-1.048,0.962
		c-0.704,0.232-2.16,0.267-3.583,0.723c-0.524,0.166-0.668-0.313-0.34-0.679c1.146-1.26,2.523-2.082,3.049-2.219
		C72.762,24.829,73.301,25.761,73.126,26.457 M55.896,31.237c0,0,0.631,0.881,0.278,2.298c-0.557,2.287-0.878,3.515-0.33,6.608
		c-1.495-1.318-1.366-4.903-1.366-4.914c0,0-2.217,2.363-1.073,7.035c-0.977-1.422-1.244-3.156-1.144-4.725
		c0.167-2.415,1.452-4.359,1.452-4.359s-1.055,0.414-1.763-0.138c1.211-2.681-0.271-5.175-0.271-5.175s-0.195,1.475-1.164,2.043
		c0.672-2.766-0.842-4.727-0.842-4.727s0.254,2.022-1.062,2.981c0.228-1.841-0.456-4.275-0.872-4.991
		c-0.195-0.337-0.252-0.814,0.636-0.381c1.056,0.517,2.475,1.452,3.618,3.07c1.321,1.866,1.784,4.066,1.887,6.496
		c0,0,0.52-2.412-0.259-4.37c1.451,1.958,3.73,1.661,3.73,1.661c-3.342-0.533-3.432-2.735-5.696-5.189
		c-0.46-0.494,0.128-0.61,0.842,0c1.124,0.852,2.223,1.909,3.416,3.104c2.438,2.435,5.442,1.997,6.757,1.645
		C60.134,32.2,55.896,31.237,55.896,31.237 M40.342,46.852c-0.015-0.016-0.383-0.305-0.53-0.423c0.358-0.27,0.995-0.706,2.021-1.083
		c0.588-0.249,1.325,0.848,0.755,1.128c-1.776,0.873-2.925,1.939-3.02,2.884c-0.072,0.704,0.529,1.185-0.745,2.036
		c-0.587,0.389-1.141,0.777-1.867,1.65c-0.325,0.389-0.663,0.527-0.513-0.331c0.089-0.55,0.724-1.257,0.724-1.257
		S36.459,49.306,40.342,46.852 M48.448,31.543c-0.008-0.025-0.029-0.042-0.041-0.064c-0.285-0.549-0.885-1.093-1.576-1.718
		c-0.935-0.842-1.998-1.791-2.638-3.055c-0.585-1.144-0.585-2.452-0.042-3.431c0.583-1.051,1.999-1.1,2.624-0.477
		c1.751,1.753,1.107,6.725,1.107,6.725s1.749-0.615,2.118-2.605c0.074,0.321,0.127,0.708,0.127,1.21
		c0,0.774-0.657,3.235-0.657,3.235s1.765-0.236,2.343-2.046c0.791,3.804-1.72,5.352-3.308,5.974
		c0.981,0.083,2.529-0.267,3.494-1.097c-0.255,1.819-3.552,2.902-3.552,2.902c0.995,0.161,2.662-0.199,3.297-0.671
		c-0.242,1.453-3.115,2.636-3.115,2.636c0.921,0.117,2.516-0.275,3.085-0.843c0.069,1.526-2.52,2.811-2.52,2.811
		c0.882,0,1.926-0.312,2.783-1.007c0,1.593-1.959,2.915-1.959,2.915c0.874-0.078,1.911-0.634,2.551-1.269
		c-0.142,1.108-1.473,2.689-2.403,3.33c-0.354,0.241-0.999,0.387-1.462-0.239c-1.247-1.72-2.79-3.352-3.152-3.729
		c0.085-0.358,0.142-0.744,0.182-1.17l0.059-0.45c0.506-2.631,1.141-4.229,2.175-5.562C48.654,32.958,48.773,32.189,48.448,31.543
		 M43.822,21.062c-0.007-0.051-0.012-0.098-0.022-0.141c0-0.02-0.007-0.044-0.007-0.068c0-0.511,0.418-0.926,0.925-0.926
		c0.515,0,0.932,0.415,0.932,0.926c0,0.249-0.096,0.479-0.275,0.656c-0.176,0.174-0.406,0.274-0.657,0.274
		C44.285,21.785,43.917,21.473,43.822,21.062 M46.112,42.24c0.612,0.678,1.433,1.633,2.169,2.623
		c0.246,0.333,0.731,1.011-0.072,1.498c-0.485,0.3-0.745,0.384-1.274,0.561c-0.292,0.097-1.064,0.34-1.544-0.423
		c-0.492-0.82-1.18-1.882-2.01-2.893c-0.218-0.266-0.271-0.716,0.355-0.869c0.383-0.092,0.712-0.204,0.97-0.404
		c0.137-0.109,0.248-0.219,0.355-0.334C45.379,41.623,45.811,41.904,46.112,42.24 M45.191,46.96c0.44,0.742-0.618,1.157-0.931,0.537
		c-0.563-1.125-1.597-2.733-2.643-3.973c-0.656-0.719,0.365-0.896,0.837-0.356C43.628,44.441,44.599,45.946,45.191,46.96
		 M36.939,53.862c0.027-0.058,0.044-0.112,0.079-0.171c0.84-1.462,3.091-2.756,4.549-2.756c1.095,0,2.106-0.328,3.418-1.12
		c1.664-1.011,2.894-0.873,2.894-0.873s0.947-0.883,2.157-0.163c0.681,0.402,1.693,1.001,2.456,1.447
		c0.593,0.353,0.6,0.866,0.022,1.188c-0.393,0.212-0.785,0.407-1.184,0.577c-1.312,0.49-2.599-0.573-2.599-0.573
		s-4.626,3.794-7.719,1.551l-0.154-0.112l-0.123,0.147c-0.005,0.01-0.392,0.442-1.185,0.858c-0.509,0.257-1.184,0.512-2.036,0.637
		C37.081,54.559,36.727,54.376,36.939,53.862 M50.185,48.387c-0.634-0.394-0.217-0.871,0.107-1.086
		c0.932-0.594,1.987-1.222,2.864-1.638c1.792-0.837,3.148-0.332,3.921,0.223c0.153,0.11,0.308,0.232,0.504,0.371
		c0.297,0.22,0.684,0.49,1.239,0.834c0.354,0.228,0.438,0.457,0.37,0.651c-0.085,0.228-0.37,0.413-0.708,0.513
		c-1.175,0.349-2.324,0.989-3.45,1.675c-0.22,0.126-1.056,0.702-1.981,0.148C52.122,49.523,50.819,48.781,50.185,48.387
		 M55.948,44.843c-0.349-0.063-0.732-0.083-1.153-0.049c-0.139,0.01-0.279,0.029-0.416,0.055c-0.433,0.073-0.899,0.214-1.394,0.442
		c-2.035,0.953-4.919,3.002-5.229,3.225c-0.244-0.018-1.361-0.04-2.987,0.945c-1.812,1.1-3.25,1.352-4.274,0.75
		c-0.37-0.217-0.55-0.496-0.52-0.822c0.06-0.793,1.218-1.811,2.873-2.585c0.543-0.245,0.87,0.364,0.344,0.62
		c-2.506,1.217-2.552,1.881-1.958,2.168c0.946,0.449,2.924-0.737,3.318-0.999c2.278-1.483,3.248-1.306,3.26-1.306
		c0,0,4.104-3.33,5.962-3.918c0.604-0.192,1.234-0.274,1.808-0.141c0.262,0.066,0.502,0.17,0.735,0.337
		c0.023,0.015,0.041,0.034,0.059,0.052C56.952,44.105,56.874,45.006,55.948,44.843 M48.287,21.28c0-0.242,0.103-0.479,0.274-0.652
		c0.174-0.177,0.406-0.273,0.655-0.273c0.51,0,0.926,0.417,0.926,0.926c0,0.513-0.416,0.928-0.926,0.928
		c-0.054,0-0.106-0.006-0.146-0.014c-0.073-0.021-0.143-0.038-0.215-0.056c-0.106-0.048-0.206-0.117-0.294-0.2
		C48.39,21.761,48.287,21.529,48.287,21.28 M50.391,22.119c0-0.249,0.104-0.482,0.275-0.654c0.171-0.177,0.408-0.271,0.65-0.271
		c0.517,0,0.932,0.415,0.932,0.926c0,0.16-0.047,0.307-0.116,0.438c-0.023,0.034-0.044,0.074-0.073,0.111
		c-0.024,0.038-0.047,0.074-0.08,0.108c-0.182,0.172-0.412,0.269-0.662,0.269c-0.242,0-0.479-0.097-0.65-0.269
		C50.494,22.601,50.391,22.371,50.391,22.119 M53.217,24.264c-0.171,0-0.337-0.051-0.479-0.137
		c-0.057-0.038-0.108-0.079-0.165-0.118c-0.173-0.169-0.281-0.408-0.281-0.671c0-0.16,0.042-0.312,0.11-0.442
		c0.027-0.034,0.049-0.074,0.073-0.112c0.172-0.226,0.438-0.374,0.742-0.374c0.51,0,0.926,0.417,0.926,0.928
		S53.727,24.264,53.217,24.264 M52.72,11.97c-1.183-0.673-1.805,1.445-1.805,1.445s0.8-0.461,1.418,0.02
		c-1.788,0.92-2.036,1.929-2.036,1.929s0.54-0.016,0.899,0.107c-0.063,0.508-0.437,1.448-1.16,1.774
		c-0.704,0.32-1.32-0.395-0.897-1.165c1.325-2.388,1.028-4.354,2.347-4.936C52.108,10.867,52.836,11.345,52.72,11.97 M49.573,9.542
		c-0.097,1.208-1.535,2.207-1.535,2.207s0.723,0.357,1.472,0c-0.016,1.204-1.566,2.149-1.566,2.149s0.466,0.441,1.389,0.036
		c-0.09,0.976-0.488,1.479-0.844,2.098c-0.559,0.975-0.687,1.691-0.687,1.691s0.527-0.32,0.887-0.326
		c-0.039,0.638-0.193,1.116-0.412,1.509c-0.364,0.732-1.09,0.665-1.09-0.048V9.025c0-1.559,1.777-1.334,2.445-2.108
		c-0.094,1.342-1.281,2.542-1.281,2.542S48.805,9.775,49.573,9.542 M47.912,20.892c0,0.513-0.419,0.925-0.926,0.925h-0.022
		c-0.24-0.003-0.463-0.097-0.635-0.269c-0.178-0.175-0.273-0.407-0.273-0.656c0-0.249,0.096-0.48,0.273-0.655
		c0.178-0.176,0.41-0.273,0.657-0.273C47.493,19.963,47.912,20.382,47.912,20.892 M46.78,18.858c0,0.713-0.725,0.78-1.085,0.048
		c-0.217-0.393-0.368-0.871-0.412-1.509c0.355,0.006,0.884,0.326,0.884,0.326s-0.124-0.716-0.686-1.691
		c-0.357-0.618-0.753-1.122-0.839-2.098c0.915,0.405,1.383-0.036,1.383-0.036s-1.548-0.945-1.57-2.149c0.752,0.357,1.474,0,1.474,0
		s-1.44-1-1.534-2.207c0.772,0.233,1.223-0.083,1.223-0.083s-1.188-1.199-1.284-2.542c0.669,0.773,2.444,0.549,2.444,2.108V18.858z
		 M44.834,16.08c0.42,0.77-0.191,1.485-0.9,1.165c-0.717-0.326-1.102-1.266-1.164-1.774c0.361-0.123,0.902-0.107,0.902-0.107
		s-0.249-1.009-2.033-1.929c0.622-0.48,1.416-0.02,1.416-0.02s-0.618-2.118-1.798-1.445c-0.12-0.625,0.605-1.103,1.227-0.826
		C43.81,11.725,43.507,13.691,44.834,16.08 M43.423,21.21c0,0.438-0.309,0.8-0.71,0.901c-0.016,0-0.033,0.006-0.044,0.008
		c-0.052,0.013-0.11,0.02-0.176,0.02c-0.373,0-0.706-0.23-0.847-0.557c-0.005-0.017-0.005-0.034-0.017-0.053
		c-0.04-0.102-0.062-0.208-0.062-0.319c0-0.51,0.416-0.928,0.926-0.928c0.445,0,0.81,0.31,0.905,0.722
		c0,0.044,0.009,0.096,0.022,0.137C43.42,21.165,43.423,21.188,43.423,21.21 M41.271,21.739c0.033,0.101,0.061,0.208,0.061,0.316
		c0,0.323-0.166,0.601-0.405,0.767c-0.019,0.008-0.029,0.019-0.041,0.023c-0.142,0.088-0.308,0.139-0.489,0.139
		c-0.505,0-0.922-0.411-0.922-0.929c0-0.508,0.417-0.922,0.922-0.922c0.381,0,0.708,0.227,0.856,0.551
		C41.257,21.705,41.257,21.725,41.271,21.739 M43.056,22.45c0.725-0.141,0.942,0.262,0.744,0.621
		c-0.624,1.089-0.622,2.554,0.027,3.821c0.527,1.041,1.347,1.887,2.104,2.606c0.586,0.561,0.245,1.028-0.414,1.142
		c-3.877,0.678-4.542-0.438-4.1-1.074l0.337-0.48c0,0,0.187-0.253,0.473-0.679c0.343-0.51,0.402-0.916,0.128-1.379
		c-0.361-0.535-0.818-0.611-1.857-0.526c-0.693,0.065-1.394,0.126-1.977,0.177c-0.407,0.01-0.743-0.265,0.193-1.413
		C39.881,23.818,41.287,22.881,43.056,22.45 M38.042,39.982c0.34-0.154,0.712-0.326,1.124-0.532
		c2.371-1.177,4.541-2.407,6.165-3.478c0.494-0.326,0.862-0.017,0.702,0.489c-0.377,1.167-0.565,2.198-0.654,2.895l-0.048,0.456
		c-0.106,0.955-0.184,1.647-0.883,2.197c-1.197,0.944-4.464,0.238-6.6-1.035C37.224,40.531,37.574,40.191,38.042,39.982
		 M60.267,47.457c-1.522-0.843-2.572-1.611-2.852-1.824c0.018-0.152,0.03-0.301,0.03-0.436c0-0.913-0.351-1.462-0.712-1.804
		c-0.051-0.06-0.112-0.108-0.169-0.153c-0.153-0.123-0.312-0.235-0.462-0.35c-0.983-0.71-1.981-1.345-2.324-2.985
		c-0.224-1.09-0.06-2.296,0.306-3.205c-0.146,4.059,2.221,5.141,3.424,5.43c0.415,0.097,0.695,0.106,0.695,0.106
		s-0.124-0.085-0.312-0.264c-0.635-0.612-2.007-2.386-1.749-6.129l0.008-0.031c0.756,2.462,2.443,3.049,3.43,3.822
		c0.139,0.104,0.264,0.218,0.372,0.341c0.017,0.014,0.028,0.028,0.035,0.042c0.275,0.322,0.602,0.824,0.909,1.271
		c0.22,0.306,0.417,0.582,0.586,0.746c0.034,0.03,0.063,0.069,0.093,0.09c-0.013,0.006-0.018,0.009-0.018,0.009
		c-0.402,0.187-1.022,0.183-1.262,0.16l-0.327-0.036c0,0,0.56,1.843,3.062,2.352c-0.863,0.735-2.113,0.641-2.134,0.635l-0.447-0.047
		c0,0,0.965,1.745,3.668,2.198C62.825,48.333,61.077,47.876,60.267,47.457 M61.23,4.748c0.537-0.612,1.348-0.829,2.337-0.623
		c1.021,0.208,1.69,0.917,1.834,1.501c0.089,0.341-0.002,0.62-0.269,0.837c-0.321,0.262-0.606,0.162-1.076-0.031
		c-0.442-0.186-1.106-0.461-1.613,0.23c-0.252,0.358-0.277,0.808-0.041,1.237c0.269,0.506,0.953,0.982,2.038,1.419
		c0.603,0.247,0.002,0.725-0.696,0.619c-1.506-0.366-2.537-1.162-2.925-2.285C60.45,6.593,60.613,5.449,61.23,4.748 M59.072,15.623
		c2.163-3.981,6.061-5.65,9.962-5.786c0.513-0.015,0.652,0.417,0.25,0.673c-1.119,0.721-2.54,1.958-3.478,3.653
		c-0.767,1.404-1.441,2.136-2.229,1.709c-0.301-0.167-0.391-0.396-0.426-0.71c-0.155-1.622,2.51-3.732,2.51-3.732
		c-0.014,0-4.287,1.726-4.349,4.209c0,0.162,0.015,0.332,0.049,0.505c0.137,0.801,0.612,1.37,0.989,1.827
		c0.37,0.438,0.588,0.715,0.588,1.027c0,0.1-0.029,0.208-0.073,0.317c-0.115,0.285-0.332,0.425-0.641,0.465
		c-0.907,0.116-2.16-0.954-2.16-0.954s0.077,0.978,1.017,1.919c0.588,0.585,1.128,1.3,0.67,2.028
		c-0.194,0.312-0.527,0.389-0.772,0.401c-0.668,0.025-1.474-0.406-1.957-1.042C58.269,21.119,57.273,18.936,59.072,15.623
		 M51.931,6.568c0.807-0.446,1.154-0.765,1.315-1.199c0.714,0.256,0.313,1.001,0.313,1.001l0.313-0.062
		c0.04-0.003,0.891-0.158,1.595,0.54c0.971,0.95,0.353,2.818-0.309,3.483c0,0,1.194-0.507,1.309-2.144
		c0.043-0.601,0.354-0.757,0.729-0.563c0.475,0.292,0.84,0.789,0.887,1.562v0.121c0,0.286-0.052,0.55-0.115,0.828
		c-0.062,0.286-0.135,0.575-0.135,0.883c0,0.12,0.044,0.248,0.068,0.375c-0.214-0.032-0.531-0.155-0.688-0.693l-0.188-0.648
		l-0.204,0.641c-0.029,0.08-0.634,1.923-2.297,1.436c-0.588-0.172-0.961-0.567-1.095-1.032c-0.226-0.791,0.745-2.211,0.745-2.211
		c-0.834,0.533-1.203,1.384-1.177,2.056c-0.245-0.083-0.478-0.287-0.58-0.559c-0.287-0.81,0.582-1.472,0.582-1.472
		s-0.908-0.148-1.388,0.201c-0.051-1.309,1.312-2.203,1.312-2.203c-1.747,0.588-1.953,1.836-1.936,2.703
		c0.035,1.355-0.526,1.853-0.93,2.059c0.309-1.174,0.031-1.485,0.033-2.706C50.104,7.894,50.996,7.088,51.931,6.568 M44.194,1.842
		c0.502-0.408,1.073-0.781,1.626-0.68c0.869,0.155,1.011,1.3,1.166,2.193c0.142-0.864,0.365-2.062,1.163-2.193
		c0.551-0.093,1.127,0.272,1.624,0.68c0.721,0.588,1.232,0.767,1.561,0.782c-0.037,0.233-0.543,0.366-1.086,0.223
		c-0.636-0.171-0.942,0.128-0.942,0.128c0.909,0,1.46,0.535,1.64,1.588c0.095,0.597,0.198,0.947,0.251,1.139
		c-0.286,0.12-0.74-0.185-0.744-0.19l-0.221-0.16l-0.093,0.254c-0.216,0.548-0.515,0.909-0.902,1.06
		c-0.367,0.145-0.741,0.077-0.949,0.012c0.462-1.515-0.774-2.48-0.774-2.48s0.661,1.774-0.526,2.617
		c-1.166-0.843-0.531-2.617-0.531-2.617s-1.24,0.966-0.777,2.48c-0.2,0.065-0.57,0.133-0.943-0.012
		c-0.386-0.15-0.69-0.511-0.897-1.06l-0.103-0.254l-0.218,0.16c-0.004,0.006-0.45,0.311-0.747,0.19
		c0.062-0.192,0.16-0.542,0.263-1.139c0.176-1.053,0.719-1.588,1.628-1.588c0,0-0.304-0.299-0.943-0.128
		c-0.542,0.143-1.041,0.01-1.085-0.223C42.964,2.609,43.484,2.43,44.194,1.842 M35.886,9.187c0.046-0.772,0.414-1.27,0.882-1.562
		c0.377-0.194,0.695-0.038,0.734,0.563c0.121,1.636,1.311,2.144,1.311,2.144c-0.663-0.665-1.273-2.533-0.308-3.483
		c0.7-0.698,1.562-0.542,1.596-0.54l0.309,0.062c0,0-0.396-0.745,0.321-1.001c0.154,0.434,0.504,0.753,1.303,1.199
		c0.938,0.52,1.839,1.326,1.844,2.396c0,1.221-0.279,1.531,0.039,2.706c-0.41-0.206-0.969-0.704-0.94-2.059
		c0.017-0.866-0.189-2.114-1.933-2.703c0,0,1.36,0.894,1.312,2.203c-0.476-0.35-1.389-0.201-1.389-0.201s0.878,0.662,0.583,1.472
		c-0.103,0.272-0.333,0.476-0.574,0.559c0.03-0.672-0.347-1.523-1.186-2.056c0,0,0.975,1.42,0.753,2.211
		c-0.133,0.465-0.507,0.86-1.095,1.032c-1.668,0.487-2.27-1.356-2.293-1.436l-0.21-0.641L36.756,10.7
		c-0.154,0.538-0.476,0.661-0.682,0.693c0.017-0.127,0.06-0.255,0.06-0.375c0-0.308-0.064-0.597-0.128-0.883
		c-0.062-0.278-0.13-0.542-0.13-0.828C35.876,9.27,35.876,9.227,35.886,9.187 M29.57,9.319c1.071-0.438,1.753-0.913,2.033-1.419
		c0.225-0.429,0.208-0.879-0.052-1.237c-0.502-0.691-1.163-0.417-1.608-0.23c-0.476,0.193-0.754,0.293-1.075,0.031
		c-0.258-0.217-0.357-0.496-0.273-0.837c0.143-0.584,0.824-1.293,1.84-1.501c0.992-0.206,1.798,0.011,2.33,0.623
		c0.617,0.702,0.776,1.846,0.412,2.906c-0.385,1.124-1.416,1.919-2.924,2.285C29.547,10.044,28.955,9.566,29.57,9.319 M24.96,9.836
		c3.907,0.136,7.798,1.805,9.963,5.786c1.803,3.313,0.799,5.497,0.049,6.509c-0.48,0.636-1.283,1.067-1.953,1.042
		c-0.239-0.012-0.575-0.089-0.771-0.401c-0.458-0.728,0.078-1.443,0.663-2.028c0.943-0.941,1.011-1.919,1.011-1.919
		s-1.25,1.07-2.149,0.954c-0.309-0.04-0.529-0.18-0.64-0.465c-0.046-0.11-0.073-0.217-0.073-0.317c0-0.312,0.218-0.589,0.584-1.027
		c0.386-0.457,0.857-1.026,0.994-1.827c0.032-0.174,0.046-0.344,0.046-0.505c-0.049-2.483-4.337-4.209-4.337-4.209
		S31,13.54,30.844,15.162c-0.032,0.314-0.12,0.542-0.422,0.71c-0.788,0.426-1.457-0.306-2.238-1.709
		c-0.931-1.695-2.354-2.932-3.469-3.653C24.312,10.254,24.454,9.821,24.96,9.836 M25.452,28.933c0.993-0.34,3.157,1.737,3.157,1.737
		s-1.665-3.816-5.584-6.05c-1.17-0.667-1.767-1.369-1.767-2.195c0-0.706,0.528-0.945,0.982-0.945c0.978,0,2.634,1.822,4.39,4.072
		c-0.515-1.588-1.96-3.491-0.415-3.875c1.144-0.282,1.825,1.771,2.516,3.958c0.485,1.556,0.823,2.47,1.553,4.058
		c0.686,1.343-0.557,2.809-1.994,2.255c-0.712-0.273-1.797-0.839-2.638-1.159C24.48,30.342,24.792,29.158,25.452,28.933
		 M21.923,27.419c-0.565-0.182-0.938-0.539-1.051-0.962c-0.179-0.696,0.365-1.627,1.925-1.212c0.52,0.137,1.896,0.959,3.044,2.219
		c0.331,0.366,0.176,0.845-0.338,0.679C24.076,27.686,22.627,27.651,21.923,27.419 M5.541,27.542c0-0.73,0.479-0.956,0.868-0.991
		c1.172-0.103,1.953,1.395,3.792,2.168c-0.943-0.944-3.125-3.983-2.711-5.286c0.073-0.225,0.169-0.388,0.374-0.495
		c0.6-0.308,1.085,0.338,2.322,2.263l0.627,0.967c3.736,5.78,10.676,5.967,14.223,6.751c-2.738-1.457-6.346-1.155-9.231-4.673
		c-2.638-3.151-2.638-8.629,0.091-12.431c-1.513,0.939-2.233,3.161-2.729,4.852c-0.2,0.698-0.668,0.963-0.668,0.043
		c0-1.942,0.529-4.229,2.291-6.648c2.421-3.34,6.392-4.488,8.579-3.413c2.294,1.124,1.947,4.962-1.536,4.962
		c-2.545,0-4.527,1.26-5.212,2.312c-0.34,0.51-0.306,1.091,0.123,1.167c0.462,0.079,0.825-0.389,1.305-0.983
		c2.302-2.831,4.184-1.586,4.028-0.577c-0.102,0.602-0.771,0.92-1.599,1.368c-1.242,0.673-2.788,1.515-3.473,3.612
		c-0.228,0.682-0.475,2.086,0.4,3.781c0.758,1.49,2.62,3.566,7.134,4.992c1.837,0.583,3.365,1.191,4.867,1.89
		c0.365,0.173,1.286,0.849,1.604,1.755c0.314,0.908-0.273,1.079-0.724,0.899c-1.606-0.637-3.358-1.221-5.227-1.666v-0.005
		c-0.005,0-0.017-0.002-0.022-0.006c-1.508-0.357-3.086-0.622-4.7-0.759v-0.01c-6.473-0.75-10.869-1.964-13.052-3.615
		C6.216,28.971,5.541,28.184,5.541,27.542 M3.131,34.061c0.274-1.012,0.999-1.853,2.022-2.372c0.926-0.471,2.026-0.622,2.93-0.426
		c0.875,0.177,0.625,0.681,0.137,0.758c-1.114,0.176-2.016,0.619-2.483,1.508c-0.509,0.973-0.201,1.805,0.034,2.475
		c0.275,0.738,0.37,1.078-0.166,1.485c-0.48,0.365-1.081,0.367-1.612,0.004C3.233,36.978,2.668,35.718,3.131,34.061 M15.239,75.175
		c-2.74,0.137-5.031-0.805-5.75-2.098c-0.823-1.486,0.267-2.712,0.267-2.712s-4.339-1.947-4.437-5.197
		c-0.024-0.779,0.314-1.439,0.867-1.581c1.131-0.296,1.137,0.864,1.583,2.611c0.884,3.44,4.58,5.552,7.243,6.01
		c1.283,0.188,1.792,0.836,1.792,1.541C16.804,74.478,16.268,75.127,15.239,75.175 M27.924,74.669
		c-0.073,2.378-0.502,4.062-1.231,4.805c-0.268,0.266-0.559,0.396-0.892,0.396c-1.021,0-2.244-1.737,0.063-3.608l0.772-0.638
		c0.34-0.339,0.46-0.753,0.318-1.108c-0.115-0.294-0.382-0.492-0.678-0.509c-0.383-0.017-0.669,0.21-0.96,0.704
		c-0.576,0.979-1.811,3.062-1.811,6.399c0,1.236-1.736,1.471-1.65,0c0.056-0.796,0.627-2.067,0.953-2.678
		c-2.232,2.232-1.376,4.778-1.376,4.778l0.235-0.19c0.497-0.396,1.045-0.481,1.457-0.211c0.357,0.241,0.708,1.131,0.171,1.736
		c-0.698,0.795-2.139,0.609-2.665-0.379c-1.197-2.237,0.18-5.301,3.017-9.088c-1.16,0.809-2.057,2.371-3.314,3.632
		c-1.427,1.423-2.603-0.137-1.548-1.188c1.184-1.194,3.907-2.204,7.662-7.696c0.297-0.479,1.477-1.263,1.477,1.731V74.669z
		 M27.721,64.72c-0.502,2.725-2.239,6.501-6.197,9.973l-1.611,1.209c-2.829,1.963-2.981,3.008-2.981,3.008h0.323
		c0.485,0,0.87,0.232,1.034,0.646c0.328,0.874-0.667,1.972-1.758,1.504c-0.57-0.247-0.794-0.833-0.777-1.479
		c0.091-2.513,4.113-4.918,4.113-4.918s-2.148,0.272-2.484-0.783c-0.02-0.095-0.046-0.189-0.046-0.291
		c0-0.44,0.301-0.946,0.96-1.215c0.394-0.153,1.09-0.303,1.822-0.466c0.142-0.032,0.283-0.062,0.428-0.095v0.003
		c0.005-0.003,0.005-0.007,0.017-0.007c1.274-0.281,2.621-0.612,3.364-1.145c0.342-0.249,0.536-0.577,0.536-0.913
		c0-0.047,0-0.097-0.015-0.143c-0.046-0.314-0.257-0.565-0.538-0.658c-0.327-0.104-0.684,0.01-0.987,0.312
		c-3.224,3.226-8.933,3.077-12.383,0.068c-1.812-1.58-2.383-3.589-1.811-5.184c0.461-1.237,2.06-1.792,3.329-1.483
		c1.017,0.244,1.606,0.859,1.702,1.685c0.184,1.578-1.536,2.397-2.574,1.731c-0.706-0.452-0.739-1.198-0.739-1.885
		c-0.649,0.646-0.515,1.819,0.264,2.805c1.942,2.428,5.986,2.534,9.04,1.881c0.647-0.136,0.835,0.163,0.208,0.53
		c-0.999,0.588-2.498,1.064-4.886,1.064c6.62,1.817,9.917-5.823,9.917-5.823l-1.256,0.616c-0.936,0.457-2.209,1.091-2.919,0.372
		c-0.229-0.224-0.341-0.518-0.297-0.805c0.039-0.342,0.292-0.657,0.698-0.884c2.402-1.373,4.023-2.333,5.231-3.543
		C27.27,59.585,28.434,60.855,27.721,64.72 M27.937,53.862h-0.013v0.025c-0.558,1.673-1.558,3.257-2.929,4.57
		c-1.879,1.804-5.279,3.903-10.802,3.678c-5.283-0.218-9.87-3.419-11.97-8.363C1.475,52,1.102,50.179,1.102,48.393
		c0-3.175,1.161-6.247,3.413-8.767c1.382-1.548,2.941-2.713,4.602-3.572c0.93-0.476,1.056-0.043,0.355,0.613
		c-1.416,1.327-2.292,2.873-2.846,4.297c-0.223,0.583-0.512,0.96-0.838,1.089c-0.29,0.105-0.531-0.013-0.538-0.015l-0.405-0.206
		c0,0-2.82,6.6,2.719,12.138c0.759,0.762,1.011,1.368,0.593,1.79c-0.495,0.495-2.025-0.366-2.025-0.366s2.41,3.159,5.192,2.962
		c1.535-0.109,2.831-1.042,3.646-2.51c0.454-0.806,0.998-1.265,1.539-1.294c0.338-0.016,0.639,0.138,0.84,0.425
		c0.228,0.331,0.256,0.713,0.107,1.154c-0.647,1.994-3.143,2.917-3.143,2.917s2.618,0.062,4.656-3.322
		c0.703-1.173,1.09-1.606,1.626-1.432c0.23,0.078,0.377,0.211,0.436,0.413c0.263,0.875-0.634,2.505-0.634,2.505
		s0.948-0.43,1.312-0.208c0.395,0.237,0.385,0.948-0.788,1.772c-4.848,3.417-11.51,1.081-11.51,1.081
		c3.616,1.876,9.095,1.611,11.972-0.634c1.658-1.298,2.526-3.164,2.171-4.694c-0.399-1.734-1.828-2.71-3.094-3.572l-0.068-0.05
		c-0.52-0.351-0.789-0.711-0.796-1.071c-0.01-0.549,0.441-1.323,1.942-0.71c1.971,0.807,3.21,3.139,3.21,3.139
		c-1.307-4.856-5.549-3.834-5.964-5.915c-0.077-0.367,0.064-0.712,0.346-1.044c0.324-0.375,0.914-0.438,1.438-0.302
		c4.671,1.222,5.774,5.749,5.774,8.456c0.492-1.704,0.308-3.775-1.301-6.524c-0.542-0.936-0.605-1.594-0.193-2.009
		c0.266-0.265,0.673-0.309,1.124-0.123c1.136,0.472,2.457,2.334,2.457,6.023C28.428,51.847,28.257,52.868,27.937,53.862
		 M25.705,42.139c-0.514-0.803,0.96-2.351,3.174-2.713c0,0-3.468-0.541-5.695,2.63c-0.308,0.449-0.622,0.72-0.943,0.682
		c-0.22-0.026-0.403-0.18-0.463-0.41c-0.433-1.522,2.67-3.804,2.67-3.804s-2.15,0.73-2.601-0.191
		c-0.456-0.928,0.549-2.019,3.451-2.318c-1.355-0.346-3.49-0.402-5.232,0.52c-1.039,0.551-1.56,1.607-1.713,2.859
		c-0.304,2.485-0.344,3.968-1.45,3.661c-0.921-0.266-0.779-3.219-0.779-3.219s-1.296,1.323-1.22,4.633
		c0.014,0.421-0.003,0.738-0.172,0.947c-0.201,0.247-0.496,0.283-0.501,0.283l-0.488,0.048l0.159,0.463
		c0.07,0.187,0.192,0.751-0.01,1.11c-0.115,0.19-0.298,0.341-0.595,0.363c-1.548,0.106-2.096-3.15-2.096-3.15
		c-1.22,0.184-1.925-0.401-1.857-1.898c0.145-3.659,3.527-6.266,3.527-6.266s-4.125,1.837-4.453,7.042
		c-0.105,1.471,0.424,3.066,0.755,3.692c0.362,0.725,0.697,1.367,0.697,1.896c0,0.518-1.44,1.789-3.259-2.05
		c0.375,2.731,2.174,4.41,4.489,5.087c1.146,0.33,1.805,0.544,1.896,1.424c0.051,0.55-0.171,0.96-0.673,1.215
		c-0.995,0.507-2.692,0.007-4.181-1.339c-3.743-3.379-3.48-8.523-2.817-10.471c0,0,0.978,0.461,1.96-1.69
		c1.32-2.933,3.762-6.277,9.837-6.985c0.553-0.067,1.06,0.321,0.318,0.662c-4.729,2.16-5.06,6.021-5.06,6.021
		c3.936-8.223,12.532-6.657,18.06-4.223c2.462,1.212,2.381,2.435,3.782,3.49c2.003,1.499,5.089,2.525,5.533,2.917
		c0.745,0.655-0.977,1.791-1.872,0.904c-2.502-2.502-5.187-3.007-7.81-2.391l-1.626,0.473C27.018,42.506,26.08,42.722,25.705,42.139
		 M54.49,90.486c-4.026,0-6.375,0.596-7.492,1.917c-1.117-1.321-3.456-1.917-7.489-1.917c-2.572,0-4.671-0.421-6.305-1.274
		c-0.603-0.377-0.548-0.762,0-0.869l1.587-0.247l-3.125-0.373c-0.875-0.098-1.137-1.272-0.456-1.406l2.136-0.327l-3.057-0.364
		c-0.794-0.1-0.798-1.177-0.115-1.306l2.833-0.439l-3.331-0.397c-0.803-0.094-0.81-1.115-0.13-1.248l2.109-0.327
		c0.581,0.235,1.999,0.796,3.162,1.254c-0.498,1.467-1.21,3.58-1.21,3.58s2.113-0.714,3.581-1.208c0.59,1.5,1.359,3.434,1.359,3.434
		s0.762-1.934,1.359-3.434c1.462,0.494,3.581,1.208,3.581,1.208s-0.713-2.113-1.205-3.58c1.491-0.592,3.429-1.359,3.429-1.359
		s-1.938-0.763-3.429-1.359c0.492-1.468,1.205-3.583,1.205-3.583s-2.119,0.715-3.581,1.209c-0.598-1.497-1.359-3.432-1.359-3.432
		s-0.769,1.935-1.359,3.432c-1.467-0.494-3.581-1.209-3.581-1.209s0.712,2.115,1.21,3.583c-1.129,0.445-2.501,0.987-3.111,1.23
		l-2.304-0.271c-0.794-0.1-0.74-1.138-0.05-1.271l3.015-0.465l-2.965-0.36c-0.794-0.094-0.74-1.149-0.05-1.28l3.008-0.469
		l-2.958-0.352c-0.794-0.1-0.74-1.158-0.05-1.29l3.008-0.466l-2.958-0.354c-0.794-0.095-0.74-1.153-0.05-1.285l3.008-0.47
		l-2.958-0.351c-0.794-0.1-0.74-1.158-0.05-1.291l3.008-0.465l-2.958-0.354c-0.794-0.097-0.74-1.156-0.05-1.288l3.008-0.463
		l-2.958-0.356c-0.794-0.097-0.74-1.157-0.05-1.288l3.008-0.466l-2.958-0.356c-0.794-0.093-0.74-1.151-0.05-1.288l3.008-0.463
		l-2.958-0.354c-0.794-0.097-0.74-1.146-0.05-1.278l2.119-0.3c0.644-0.053,1.279,0.059,1.712,0.503l25.44,26.541
		C57.42,90.332,56.045,90.486,54.49,90.486 M35.164,80.936c0.068-0.025,0.135-0.052,0.193-0.074c0.068-0.024,0.129-0.05,0.188-0.078
		c0.062-0.023,0.121-0.04,0.17-0.064c0.697-0.276,1.256-0.494,1.256-0.494s0.218-0.557,0.492-1.253
		c0.022-0.056,0.039-0.109,0.064-0.167c0.029-0.062,0.046-0.126,0.078-0.193c0.02-0.06,0.047-0.124,0.077-0.188
		c0.022-0.056,0.044-0.109,0.063-0.166c0.326-0.824,0.666-1.674,0.803-2.021c0.138,0.347,0.476,1.196,0.801,2.021
		c0.022,0.057,0.04,0.11,0.064,0.166c0.021,0.064,0.049,0.129,0.078,0.188c0.023,0.067,0.047,0.131,0.077,0.193
		c0.017,0.058,0.039,0.111,0.066,0.167c0.273,0.696,0.492,1.253,0.492,1.253s0.554,0.218,1.251,0.494
		c0.062,0.024,0.113,0.041,0.165,0.064c0.059,0.028,0.122,0.054,0.195,0.078c0.062,0.022,0.125,0.049,0.189,0.074
		c0.056,0.02,0.108,0.044,0.165,0.065c0.827,0.325,1.674,0.666,2.028,0.801c-0.354,0.137-1.201,0.477-2.028,0.799
		c-0.057,0.024-0.109,0.045-0.165,0.068c-0.064,0.025-0.127,0.051-0.189,0.074c-0.073,0.027-0.137,0.054-0.195,0.073
		c-0.052,0.025-0.104,0.05-0.165,0.07c-0.697,0.274-1.251,0.495-1.251,0.495s-0.218,0.551-0.492,1.252
		c-0.027,0.054-0.05,0.108-0.066,0.165c-0.029,0.061-0.054,0.124-0.077,0.19c-0.029,0.064-0.046,0.129-0.078,0.192
		c-0.025,0.052-0.042,0.109-0.064,0.162c-0.325,0.826-0.663,1.682-0.801,2.023c-0.137-0.342-0.477-1.197-0.803-2.023
		c-0.019-0.053-0.041-0.105-0.063-0.162c-0.03-0.063-0.057-0.128-0.077-0.192c-0.031-0.066-0.048-0.13-0.078-0.19
		c-0.025-0.057-0.042-0.111-0.064-0.165c-0.274-0.701-0.492-1.252-0.492-1.252s-0.559-0.221-1.256-0.495
		c-0.049-0.021-0.108-0.045-0.17-0.07c-0.059-0.02-0.12-0.046-0.188-0.073c-0.059-0.023-0.125-0.049-0.193-0.074
		c-0.052-0.023-0.103-0.044-0.162-0.068c-0.828-0.322-1.673-0.662-2.021-0.799c0.348-0.135,1.193-0.476,2.021-0.801
		C35.062,80.979,35.112,80.955,35.164,80.936 M34.544,77.797c0.351,0.12,1.462,0.494,2.427,0.82c0.049,0.02,0.11,0.04,0.167,0.055
		c-0.018,0.06-0.044,0.112-0.062,0.168c-0.241,0.581-0.412,1.019-0.429,1.062c-0.046,0.021-0.48,0.192-1.068,0.428
		c-0.047,0.017-0.098,0.042-0.162,0.062c-0.015-0.053-0.039-0.11-0.056-0.165C35.036,79.259,34.66,78.145,34.544,77.797
		 M39.959,78.677c0.055-0.02,0.108-0.04,0.167-0.06c0.965-0.326,2.074-0.7,2.428-0.82c-0.121,0.348-0.493,1.462-0.818,2.43
		c-0.017,0.055-0.04,0.112-0.062,0.165c-0.057-0.02-0.107-0.042-0.159-0.062c-0.589-0.235-1.029-0.406-1.069-0.428
		c-0.024-0.044-0.19-0.481-0.428-1.062C40.001,78.784,39.976,78.731,39.959,78.677 M42.554,85.806
		c-0.354-0.117-1.462-0.494-2.428-0.821c-0.059-0.016-0.112-0.037-0.167-0.054c0.017-0.055,0.042-0.115,0.06-0.163
		c0.237-0.588,0.403-1.024,0.428-1.068c0.04-0.02,0.479-0.193,1.069-0.425c0.051-0.021,0.102-0.041,0.159-0.064
		c0.022,0.056,0.044,0.112,0.062,0.17C42.061,84.342,42.433,85.459,42.554,85.806 M37.139,84.931
		c-0.058,0.017-0.118,0.038-0.167,0.054c-0.965,0.327-2.077,0.704-2.427,0.821c0.116-0.347,0.492-1.464,0.825-2.426
		c0.01-0.058,0.034-0.114,0.049-0.17c0.063,0.023,0.115,0.044,0.162,0.064c0.588,0.231,1.022,0.405,1.068,0.425
		c0.017,0.044,0.188,0.48,0.429,1.068C37.094,84.815,37.121,84.876,37.139,84.931 M29.354,61.161l0.701-0.108
		c0.698-0.108,1.071,0.283,1.517,0.743c0.374,0.394,0.085,0.89-0.62,0.811l-1.548-0.165C28.609,62.344,28.664,61.292,29.354,61.161
		 M59.449,89.78L28.811,57.812l-0.121-0.125v-3.06h3.821l3.628,3.775l0.247,0.258l0.246,0.249l1.785,1.859l0.24,0.246l1.79,1.862
		l23.053,23.98C62.538,88.22,61.201,89.188,59.449,89.78 M64.566,84.717c-0.029,0.082-0.056,0.166-0.085,0.245
		c-0.161,0.382-0.355,0.64-0.737,0.59l-0.233-0.026c-1.268-0.152-1.238-1.166-0.584-1.268l0.949-0.146
		C64.383,84.057,64.665,84.319,64.566,84.717 M65.304,74.699v5.002c0,0.961-0.063,1.85-0.179,2.678
		c-0.172,1.026-0.634,1.374-1.488,1.299l-2.166-0.261c-1.261-0.153-1.238-1.17-0.577-1.265l2.435-0.377l-3.873-0.467
		c-1.264-0.152-1.238-1.166-0.587-1.268l2.431-0.375l-3.879-0.467c-1.262-0.148-1.239-1.166-0.58-1.265l2.432-0.378l-3.879-0.463
		c-1.262-0.151-1.232-1.168-0.59-1.265h0.01l2.431-0.38l-3.871-0.462c-1.262-0.154-1.235-1.168-0.576-1.269l2.42-0.378l-3.868-0.46
		c-1.271-0.152-1.244-1.167-0.588-1.27l2.431-0.377l-3.87-0.463c-1.267-0.154-1.239-1.169-0.585-1.271l2.432-0.372l-3.877-0.465
		h-0.007c-1.256-0.152-1.239-1.167-0.578-1.268l2.43-0.378l-3.872-0.46c-1.265-0.153-1.24-1.167-0.586-1.271l2.434-0.377
		l-3.884-0.465c-1.261-0.146-1.232-1.163-0.581-1.265l2.438-0.376l-3.885-0.467c-1.262-0.15-1.24-1.164-0.588-1.265l2.445-0.381
		l-3.877-0.463c-1.269-0.153-1.247-1.165-0.588-1.261l2.439-0.38l-3.884-0.463c-1.259-0.154-1.24-0.98-0.583-1.076v-0.004
		c2.821,0.091,4.249-0.86,4.7-1.239c3.243,0.619,5.536-0.382,6.776-1.18h17.266V74.699z M73.666,78.71
		c-1.258-1.261-2.156-2.823-3.313-3.632c2.844,3.787,4.219,6.851,3.017,9.088c-0.526,0.988-1.971,1.174-2.667,0.379
		c-0.534-0.605-0.19-1.495,0.172-1.736c0.408-0.271,0.963-0.186,1.46,0.211l0.229,0.19c0,0,0.867-2.546-1.372-4.778
		c0.332,0.61,0.904,1.882,0.943,2.678c0.091,1.471-1.641,1.236-1.641,0c0-3.338-1.232-5.421-1.811-6.399
		c-0.289-0.494-0.58-0.721-0.952-0.704c-0.31,0.017-0.578,0.215-0.681,0.509c-0.147,0.355-0.027,0.77,0.313,1.108l0.771,0.638
		c2.308,1.871,1.075,3.608,0.063,3.608c-0.336,0-0.63-0.13-0.892-0.396c-0.729-0.742-1.163-2.427-1.232-4.805v-3.111
		c0-2.994,1.176-2.211,1.473-1.731c3.76,5.492,6.474,6.502,7.665,7.696C76.274,78.573,75.09,80.133,73.666,78.71 M86.225,66.198
		c0.451-1.747,0.456-2.907,1.588-2.611c0.553,0.142,0.892,0.802,0.864,1.581c-0.092,3.25-4.433,5.197-4.433,5.197
		s1.09,1.226,0.262,2.712c-0.72,1.293-3.003,2.234-5.751,2.098c-1.023-0.048-1.561-0.697-1.561-1.426
		c0-0.705,0.508-1.353,1.789-1.541C81.65,71.75,85.347,69.639,86.225,66.198 M85.265,64.146c0.574,1.595,0.008,3.604-1.804,5.184
		c-3.454,3.009-9.164,3.157-12.384-0.068c-0.306-0.302-0.662-0.416-0.979-0.312c-0.293,0.093-0.501,0.344-0.55,0.658
		c-0.002,0.046-0.017,0.096-0.017,0.143c0,0.336,0.197,0.664,0.535,0.913c0.747,0.532,2.09,0.863,3.368,1.145
		c0.007,0,0.013,0.004,0.024,0.007v-0.003c0.138,0.033,0.279,0.062,0.417,0.095c0.742,0.163,1.433,0.312,1.826,0.466
		c0.657,0.269,0.961,0.774,0.961,1.215c0,0.102-0.018,0.196-0.047,0.291c-0.341,1.056-2.489,0.783-2.489,0.783
		s4.037,2.405,4.112,4.918c0.022,0.646-0.199,1.232-0.775,1.479c-1.08,0.468-2.081-0.63-1.759-1.504
		c0.159-0.414,0.546-0.646,1.038-0.646h0.32c0,0-0.153-1.045-2.976-3.008l-1.615-1.209c-3.961-3.472-5.694-7.248-6.193-9.973
		c-0.714-3.864,0.446-5.135,1.268-4.312c1.213,1.21,2.828,2.17,5.234,3.543c0.403,0.227,0.653,0.542,0.699,0.884
		c0.039,0.287-0.068,0.581-0.296,0.805c-0.712,0.719-1.986,0.085-2.914-0.372l-1.266-0.616c0,0,3.296,7.641,9.916,5.823
		c-2.383,0-3.885-0.477-4.886-1.064c-0.623-0.367-0.434-0.666,0.212-0.53c3.05,0.653,7.094,0.547,9.035-1.881
		c0.795-0.985,0.914-2.158,0.27-2.805c0,0.687-0.033,1.433-0.732,1.885c-1.045,0.666-2.769-0.153-2.581-1.731
		c0.094-0.825,0.682-1.44,1.698-1.685C83.206,62.354,84.818,62.909,85.265,64.146 M91.772,53.772
		c-2.097,4.944-6.679,8.146-11.967,8.363c-5.528,0.225-8.928-1.874-10.8-3.678c-1.372-1.313-2.372-2.897-2.931-4.57v-0.025h-0.006
		c-0.332-0.995-0.503-2.016-0.503-3.033c0-3.689,1.32-5.551,2.461-6.023c0.451-0.186,0.856-0.143,1.12,0.123
		c0.415,0.415,0.415,1.174-0.053,2.15c-0.827,1.729-1.766,4.062-1.419,6.512c0.306-2.661,1.918-7.699,5.896-8.728
		c0.527-0.137,0.973,0.07,1.298,0.445c0.28,0.332,0.422,0.677,0.343,1.044c-0.41,2.081-3.854,0.788-5.403,5.306
		c0,0,1.459-1.971,2.661-2.53c1.457-0.686,1.937,0.161,1.925,0.71c-0.005,0.359-0.268,0.72-0.789,1.071l-0.067,0.05
		c-1.272,0.862-2.604,1.865-3.094,3.572c-0.561,1.979,0.245,3.713,2.038,4.826c5.545,3.452,12.108,0.479,12.108,0.479
		c-3.86,1.283-9.058,0.838-11.513-1.064c-1.123-0.871-1.1-1.618-0.704-1.856c0.369-0.22,1.228,0.298,1.228,0.298
		s-0.897-1.629-0.635-2.505c0.06-0.202,0.201-0.335,0.438-0.413c0.53-0.174,0.922,0.259,1.62,1.432
		c2.039,3.383,4.66,3.322,4.66,3.322s-2.501-0.923-3.146-2.917c-0.143-0.44-0.121-0.823,0.113-1.154
		c0.2-0.287,0.509-0.441,0.844-0.425c0.532,0.029,1.082,0.488,1.534,1.294c0.819,1.468,2.111,2.341,3.643,2.51
		c1.405,0.155,3.474-0.687,4.3-1.972c-1.151,0.429-2.381-1.032-1.164-1.966c5.913-4.527,3.346-12.586,3.346-12.586l-0.402,0.206
		c-0.014,0.002-0.254,0.12-0.541,0.015c-0.326-0.129-0.619-0.506-0.841-1.089c-0.55-1.424-1.431-2.97-2.846-4.297
		c-0.704-0.656-0.571-1.089,0.354-0.613c1.666,0.858,3.221,2.024,4.604,3.572c2.252,2.521,3.407,5.592,3.407,8.767
		C92.891,50.179,92.525,52,91.772,53.772 M46.7,33.083c0.382,0,0.699-0.311,0.699-0.691c0-0.387-0.316-0.697-0.699-0.697
		c-0.381,0-0.695,0.31-0.695,0.697C46.004,32.772,46.318,33.083,46.7,33.083 M32.889,34.086l2.377,4.921l0.113,0.011
		c0.417,0.051,0.955-0.049,1.698-0.32l0.215-0.08l-2.337-4.828h-2.209L32.889,34.086z M38.145,38.264l1.021-0.491l0.764-0.382
		l-0.096-0.18l-1.707-3.536l-2.152,0.097l0.134,0.278L38.145,38.264z M43.454,41.445c0.384,0,0.693-0.312,0.693-0.695
		c0-0.381-0.309-0.696-0.693-0.696c-0.386,0-0.7,0.314-0.7,0.696C42.754,41.133,43.068,41.445,43.454,41.445 M40.748,36.967
		l1.749-0.954l-0.09-0.174l-1.167-2.408l-2.119,0.182l0.135,0.266L40.748,36.967z M49.595,50.709
		c0.328,0.191,0.711,0.159,0.853-0.084c0.142-0.241-0.012-0.592-0.338-0.787c-0.336-0.194-0.718-0.159-0.862,0.082
		C49.105,50.16,49.259,50.513,49.595,50.709 M52.646,64.843c-0.497,1.465-1.21,3.58-1.21,3.58s2.118-0.711,3.581-1.207
		c0.598,1.496,1.359,3.433,1.359,3.433s0.77-1.937,1.362-3.433c1.463,0.496,3.578,1.207,3.578,1.207s-0.714-2.115-1.205-3.58
		c1.495-0.594,3.431-1.36,3.431-1.36s-1.936-0.765-3.431-1.357c0.491-1.467,1.205-3.582,1.205-3.582s-2.115,0.716-3.578,1.208
		c-0.593-1.498-1.362-3.433-1.362-3.433s-0.762,1.935-1.359,3.433c-1.463-0.492-3.581-1.208-3.581-1.208s0.713,2.115,1.21,3.582
		c-1.501,0.593-3.434,1.357-3.434,1.357S51.146,64.249,52.646,64.843 M54.799,66.667c-0.965,0.326-2.074,0.706-2.427,0.821
		c0.12-0.347,0.503-1.462,0.827-2.428c0.008-0.056,0.035-0.115,0.051-0.166c0.062,0.02,0.112,0.043,0.168,0.065
		c0.581,0.231,1.012,0.402,1.061,0.42c0.023,0.046,0.195,0.479,0.429,1.067c0.023,0.054,0.041,0.111,0.063,0.163
		C54.909,66.631,54.86,66.648,54.799,66.667 M60.381,67.488c-0.346-0.115-1.464-0.495-2.424-0.821
		c-0.055-0.019-0.113-0.036-0.169-0.057c0.017-0.052,0.044-0.109,0.062-0.163c0.234-0.588,0.401-1.021,0.429-1.067
		c0.045-0.018,0.479-0.188,1.067-0.42c0.051-0.022,0.104-0.046,0.159-0.065c0.023,0.051,0.041,0.11,0.058,0.166
		C59.889,66.026,60.262,67.142,60.381,67.488 M57.957,60.299c0.96-0.324,2.078-0.701,2.424-0.817
		c-0.119,0.347-0.492,1.463-0.818,2.425c-0.017,0.058-0.034,0.112-0.058,0.169c-0.056-0.023-0.108-0.046-0.159-0.064
		c-0.588-0.231-1.022-0.403-1.067-0.425c-0.027-0.047-0.194-0.478-0.429-1.064c-0.018-0.052-0.045-0.11-0.062-0.166
		C57.844,60.338,57.902,60.317,57.957,60.299 M52.372,59.481c0.353,0.116,1.462,0.494,2.427,0.817
		c0.062,0.019,0.11,0.039,0.172,0.057c-0.022,0.056-0.04,0.114-0.063,0.166c-0.233,0.587-0.405,1.018-0.429,1.064
		c-0.049,0.021-0.479,0.193-1.061,0.425c-0.056,0.019-0.105,0.041-0.168,0.064c-0.016-0.057-0.043-0.111-0.051-0.169
		C52.875,60.944,52.492,59.829,52.372,59.481 M52.836,62.684c0.055-0.022,0.107-0.045,0.163-0.067
		c0.063-0.024,0.128-0.05,0.188-0.076c0.062-0.025,0.128-0.049,0.194-0.073c0.054-0.022,0.114-0.043,0.165-0.069
		c0.694-0.272,1.252-0.493,1.252-0.493s0.219-0.557,0.494-1.252c0.021-0.057,0.043-0.111,0.064-0.164
		c0.029-0.063,0.054-0.13,0.077-0.192c0.027-0.065,0.056-0.126,0.078-0.19c0.023-0.059,0.045-0.112,0.062-0.165
		c0.327-0.826,0.665-1.674,0.802-2.021c0.137,0.347,0.477,1.196,0.803,2.021c0.021,0.053,0.037,0.11,0.063,0.168
		c0.03,0.062,0.048,0.122,0.076,0.188c0.022,0.062,0.052,0.129,0.078,0.192c0.022,0.053,0.048,0.107,0.064,0.164
		c0.277,0.7,0.495,1.252,0.495,1.252s0.55,0.221,1.251,0.493c0.059,0.026,0.11,0.047,0.172,0.069
		c0.058,0.024,0.125,0.048,0.188,0.073c0.064,0.028,0.126,0.052,0.193,0.076c0.055,0.022,0.104,0.045,0.163,0.067
		c0.823,0.325,1.672,0.665,2.021,0.799c-0.349,0.136-1.197,0.479-2.021,0.8c-0.06,0.024-0.108,0.049-0.163,0.068
		c-0.067,0.027-0.129,0.051-0.193,0.075c-0.062,0.025-0.13,0.049-0.188,0.077c-0.062,0.022-0.113,0.04-0.172,0.062
		c-0.701,0.277-1.251,0.501-1.251,0.501s-0.218,0.55-0.495,1.248c-0.017,0.056-0.042,0.107-0.064,0.167
		c-0.026,0.061-0.056,0.127-0.078,0.191c-0.028,0.061-0.046,0.125-0.076,0.189c-0.026,0.057-0.043,0.112-0.063,0.167
		c-0.326,0.824-0.666,1.674-0.803,2.022c-0.137-0.349-0.475-1.198-0.802-2.022c-0.018-0.055-0.039-0.11-0.062-0.167
		c-0.022-0.064-0.051-0.129-0.078-0.189c-0.023-0.064-0.048-0.131-0.074-0.191c-0.024-0.06-0.046-0.111-0.067-0.163
		c-0.275-0.702-0.494-1.252-0.494-1.252s-0.558-0.224-1.252-0.501c-0.051-0.022-0.111-0.04-0.165-0.062
		c-0.066-0.028-0.132-0.052-0.194-0.077c-0.061-0.024-0.125-0.048-0.188-0.075c-0.056-0.02-0.108-0.044-0.163-0.068
		c-0.824-0.321-1.676-0.664-2.019-0.8C51.16,63.345,52.012,63.009,52.836,62.684 M45.776,73.562
		c-0.188,0.443-0.436,1.024-0.436,1.024s0.579-0.248,1.024-0.441c0.198,0.407,0.48,0.974,0.48,0.974s0.284-0.566,0.481-0.974
		c0.446,0.193,1.024,0.441,1.024,0.441s-0.25-0.581-0.438-1.024c0.404-0.199,0.971-0.48,0.971-0.48s-0.566-0.283-0.971-0.48
		c0.188-0.445,0.438-1.028,0.438-1.028s-0.578,0.249-1.024,0.444c-0.198-0.404-0.481-0.975-0.481-0.975s-0.282,0.57-0.48,0.975
		c-0.446-0.195-1.024-0.443-1.024-0.443s0.248,0.582,0.436,1.027c-0.401,0.197-0.972,0.48-0.972,0.48S45.375,73.363,45.776,73.562
		 M46.18,72.388c0.062,0.027,0.125,0.054,0.185,0.08c0.073,0.029,0.137,0.054,0.198,0.083c0.159,0.068,0.282,0.125,0.282,0.125
		s0.125-0.054,0.291-0.125c0.051-0.025,0.12-0.054,0.186-0.083c0.06-0.026,0.123-0.053,0.188-0.08
		c0.019-0.009,0.036-0.018,0.059-0.023c-0.01,0.018-0.022,0.032-0.026,0.053c-0.028,0.063-0.053,0.125-0.077,0.188
		c-0.031,0.063-0.061,0.13-0.091,0.188c-0.068,0.165-0.117,0.289-0.117,0.289s0.052,0.119,0.117,0.287
		c0.03,0.058,0.06,0.124,0.091,0.19c0.024,0.059,0.049,0.125,0.077,0.188c0.004,0.017,0.017,0.034,0.026,0.054
		c-0.022-0.008-0.04-0.017-0.059-0.025c-0.064-0.026-0.128-0.05-0.188-0.082c-0.065-0.028-0.135-0.054-0.186-0.081
		c-0.166-0.071-0.291-0.125-0.291-0.125s-0.123,0.055-0.282,0.125c-0.061,0.027-0.125,0.053-0.198,0.081
		c-0.06,0.032-0.123,0.056-0.185,0.082c-0.022,0.009-0.039,0.018-0.051,0.025c0.005-0.02,0.012-0.034,0.022-0.054
		c0.024-0.062,0.056-0.129,0.075-0.188c0.032-0.066,0.062-0.133,0.092-0.19c0.063-0.163,0.12-0.287,0.12-0.287
		s-0.056-0.124-0.12-0.289c-0.03-0.059-0.06-0.125-0.092-0.188c-0.019-0.062-0.051-0.124-0.075-0.188
		c-0.01-0.019-0.017-0.035-0.029-0.053C46.146,72.37,46.163,72.379,46.18,72.388 M53.47,48.604c0.142-0.242-0.005-0.592-0.338-0.791
		c-0.331-0.192-0.713-0.157-0.853,0.083c-0.147,0.24,0.006,0.595,0.338,0.79C52.949,48.879,53.327,48.847,53.47,48.604"/>
	<path d="M7.057,118.739h1.469v-8.14l0.514,2.039l1.592,6.101h1.616l1.646-6.101l0.515-2.039v8.14h1.471v-10.312h-2.278
		l-1.624,6.455l-0.494,2.074l-0.497-2.06l-1.659-6.47H7.057V118.739z M17.201,118.739h1.607l0.637-2.664h2.651l0.667,2.664h1.646
		l-2.754-10.312h-1.73L17.201,118.739z M19.77,114.715l0.973-4.054l1.012,4.054H19.77z M28.698,119c2.319,0,3.262-1.38,3.262-3.031
		v-0.84h-1.485v0.732c0,1.05-0.572,1.697-1.736,1.697c-1.158,0-1.731-0.676-1.731-1.607v-4.718c0-0.946,0.573-1.63,1.731-1.63
		c1.164,0,1.736,0.652,1.736,1.707v0.725h1.485v-0.837c0-1.654-0.943-3.014-3.262-3.014c-2.307,0-3.329,1.529-3.329,3.204v4.395
		C25.369,117.451,26.391,119,28.698,119 M35.549,118.739h1.643v-8.824h2.503v-1.487H33.04v1.487h2.509V118.739z M41.064,118.739
		h5.569v-1.475H42.7v-3.261h2.832v-1.396H42.7V109.9h3.934v-1.473h-5.569V118.739z M48.142,118.739h1.644v-4.024h1.825
		c2.029,0,2.771-1.097,2.771-2.615v-1.039c0-1.528-0.741-2.633-2.771-2.633h-3.469V118.739z M49.785,113.35v-3.54h1.84
		c0.835,0,1.097,0.461,1.097,1.221v1.082c0,0.759-0.262,1.237-1.097,1.237H49.785z M59.131,119c2.319,0,3.268-1.38,3.268-3.031
		v-0.84h-1.485v0.732c0,1.05-0.571,1.697-1.734,1.697c-1.161,0-1.731-0.676-1.731-1.607v-4.718c0-0.946,0.57-1.63,1.731-1.63
		c1.163,0,1.734,0.652,1.734,1.707v0.725h1.485v-0.837c0-1.654-0.948-3.014-3.268-3.014c-2.305,0-3.324,1.529-3.324,3.204v4.395
		C55.807,117.451,56.826,119,59.131,119 M63.93,118.739h1.639v-4.553h1.301c0.882,0,1.207,0.495,1.396,1.287l0.399,1.717
		c0.268,1.145,0.48,1.549,1.846,1.549h0.479v-1.273c-0.355,0-0.623-0.121-0.681-0.401l-0.404-1.609
		c-0.216-0.864-0.526-1.827-1.627-1.98v-0.044c0.946-0.25,1.177-1.083,1.427-1.952l0.383-1.38c0.064-0.278,0.268-0.4,0.623-0.4
		v-1.271h-0.401c-1.365,0-1.444,0.418-1.764,1.549l-0.39,1.314c-0.233,0.773-0.433,1.506-1.313,1.506h-1.273v-4.369H63.93V118.739z
		 M71.983,118.739h1.61l0.633-2.664h2.646l0.664,2.664h1.66l-2.758-10.312h-1.731L71.983,118.739z M74.553,114.715l0.973-4.054
		l1.009,4.054H74.553z M80.215,118.739h0.479c1.361,0,1.503-0.418,1.856-1.549l0.48-1.581c0.249-0.77,0.479-0.943,1.363-0.943h0.913
		v4.073h1.637v-10.312h-3.464c-2.027,0-2.77,1.007-2.77,2.54v0.853c0,0.914,0.244,1.932,1.606,2.338
		c-0.617,0.311-0.878,0.883-1.052,1.548l-0.354,1.358c-0.076,0.28-0.338,0.401-0.696,0.401V118.739z M83.651,113.305
		c-0.838,0-1.285-0.446-1.285-1.332v-1.018c0-0.654,0.264-1.146,1.113-1.146h1.827v3.495H83.651z"/>
</g>
</svg>
