<?xml version="1.0" encoding="utf-8"?>
<!-- Generator: Adobe Illustrator 16.0.0, SVG Export Plug-In . SVG Version: 6.00 Build 0)  -->
<!DOCTYPE svg PUBLIC "-//W3C//DTD SVG 1.1//EN" "http://www.w3.org/Graphics/SVG/1.1/DTD/svg11.dtd">
<svg version="1.1" id="Layer_1" xmlns="http://www.w3.org/2000/svg" xmlns:xlink="http://www.w3.org/1999/xlink" x="0px" y="0px"
	 width="14px" height="11px" viewBox="0 0 14 11" enable-background="new 0 0 14 11" xml:space="preserve">
<g>
	<path fill="#0000FF" d="M7.807,11h0.678c1.602,0,2.063-0.907,2.51-2.246l2.68-8.008H11.98l-1.648,5.405L8.53,0.746H6.79
		l2.818,7.792L9.593,8.615C9.439,9.139,9.146,9.539,8.299,9.539H7.807V11z M1.63,5.643V2.114h1.834c0.832,0,1.094,0.462,1.094,1.217
		V4.41c0,0.755-0.262,1.232-1.094,1.232H1.63z M0,11h1.63V6.996h1.819c2.017,0,2.755-1.092,2.755-2.601V3.362
		c0-1.525-0.738-2.616-2.755-2.616H0V11z"/>
</g>
</svg>
